<?xml version="1.0" encoding="utf-8"?>
<!-- Generator: Adobe Illustrator 18.1.0, SVG Export Plug-In . SVG Version: 6.00 Build 0)  -->
<svg version="1.1" id="Layer_1" xmlns="http://www.w3.org/2000/svg" xmlns:xlink="http://www.w3.org/1999/xlink" x="0px" y="0px"
	 viewBox="0 0 170.5 36" enable-background="new 0 0 170.5 36" xml:space="preserve">
<g>
	<g>
		<g>
			<g>
				<path fill="#231F20" d="M38.3,9.1c0-3.2-6.6-5.4-8.7-0.6c-1.6-3.7-6.8-3.6-8.3,0V6.6c0-0.3-0.3-0.5-0.5-0.5h-3
					c-0.3,0-0.5,0.3-0.5,0.5v16c0,0.3,0.3,0.5,0.5,0.5H21c0.3,0,0.5-0.3,0.5-0.5V12.5c0-1.1,0.5-2.4,1.7-2.7c1.3-0.3,2.4,0.4,2.4,2
					v10.8c0,0.3,0.3,0.5,0.5,0.5h3.2c0.3,0,0.5-0.3,0.5-0.5l0-10.8c0-2.4,4.1-3.1,4.1,0v10.8c0,0.3,0.3,0.5,0.5,0.5h3.2
					c0.3,0,0.5-0.3,0.5-0.5V9.1z"/>
				<path fill="#231F20" d="M69.9,6.6c0-0.3-0.3-0.5-0.5-0.5H58.9c-0.1,0-0.3,0.1-0.4,0.2c-0.1,0.1-0.1,0.2-0.1,0.4v2.2
					c0,0.3,0.3,0.5,0.6,0.5h5.5l-6.2,9.2c-0.4,0.5-0.3,0.8-0.3,1l0,2.5c0,0.5,0.2,0.8,0.8,0.5c3.8-1.6,7.9-1.7,11,0.1
					c0.3,0.2,0.6,0,0.6-0.4l0-2.9c0-0.2-0.1-0.4-0.3-0.5c-1.8-1.1-4-1.4-6.2-1.4l5.8-8.1c0.3-0.4,0.3-0.8,0.3-0.9V6.6z"/>
				<path fill="#231F20" d="M81.3,14.6c0,3.1-0.1,5.6-2.4,5.6c-2.2,0-2.4-2.5-2.4-5.6c0-3.1,0.2-5.6,2.4-5.6
					C81,9.1,81.3,11.5,81.3,14.6z M86,14.6c0-5.1-3-9-7.1-8.9c-4.2,0-7.1,4-7.1,9c0,5.1,3,9,7.2,8.9C83.1,23.4,86,19.5,86,14.6z"/>
				<path fill="#231F20" d="M101.1,10.3c0-2.5-1.5-4.6-5.1-4.5c-1.7,0-3,1.3-3.7,3.1V6.6c0-0.3-0.3-0.5-0.5-0.5h-3.1
					c-0.3,0-0.5,0.3-0.5,0.5v16c0,0.3,0.3,0.5,0.5,0.5h3.2c0.3,0,0.5-0.3,0.5-0.5V12.5c0-1.5,1.3-2.8,2.5-2.8c1,0,2,0.9,2,2v10.9
					c0,0.3,0.3,0.5,0.5,0.5h3.1c0.3,0,0.5-0.3,0.5-0.5V10.3z"/>
				<path fill="#231F20" d="M50.3,14.9v2.1c0,1.6-1.1,3-2,3.2c-1.7,0.5-2.9-0.8-2.8-2.3c0.1-1.8,1.7-2.9,3-3L50.3,14.9z M54.6,9.9
					c0-2.7-2.3-4.4-6.8-4.2c-2.8,0.1-5.4,1.1-6.1,4.5c0,0.1,0,0.3,0.1,0.4c0.1,0.1,0.2,0.2,0.4,0.2l2.8,0.3c0.3,0,0.5-0.2,0.6-0.4
					c0.2-1.1,1-1.8,2.2-1.8c1.7,0,2.5,0.9,2.5,2.1v1.6l-3.5,0.3c-2.9,0.2-5.7,2.1-5.7,5.8c-0.1,3.4,2.2,5,5.3,4.8
					c1.8-0.1,3.4-0.9,4.6-2.2l1.7,1.9c0.1,0.1,0.2,0.2,0.4,0.2c0.1,0,0.3,0,0.4-0.2l2.3-2.2c0.2-0.2,0.2-0.5,0.1-0.7L55,19.2
					c-0.2-0.2-0.3-1.2-0.3-1.8V9.9z"/>
				<path fill="#231F20" d="M9.2,14.9v2.1c0,1.6-1.1,3-2,3.2c-1.7,0.5-2.9-0.8-2.8-2.3c0.1-1.8,1.7-2.9,3-3L9.2,14.9z M13.6,9.9
					c0-2.7-2.3-4.4-6.8-4.2C4,5.8,1.3,6.8,0.7,10.1c0,0.1,0,0.3,0.1,0.4c0.1,0.1,0.2,0.2,0.4,0.2l2.8,0.3c0.3,0,0.5-0.2,0.6-0.4
					c0.2-1,1-1.8,2.2-1.8c1.7,0,2.5,0.9,2.5,2.1v1.6l-3.5,0.3C2.8,13,0.1,14.9,0,18.6c-0.1,3.4,2.2,5,5.3,4.8
					c1.8-0.1,3.4-0.9,4.6-2.2l1.7,1.9c0.1,0.1,0.2,0.2,0.4,0.2c0.1,0,0.3-0.1,0.4-0.2l2.3-2.2c0.2-0.2,0.2-0.5,0.1-0.7l-0.8-1.1
					c-0.2-0.2-0.3-1.2-0.3-1.8V9.9z"/>
			</g>
			<g>
				<path fill="#231F20" d="M106.2,22c0-0.9-0.7-1.5-1.5-1.5c-0.9,0-1.5,0.7-1.5,1.5c0,0.9,0.7,1.5,1.5,1.5
					C105.5,23.5,106.2,22.8,106.2,22z"/>
				<path fill="#231F20" d="M118.4,11.8c0.1,0,0.2,0,0.3-0.1c0.1-0.1,0.1-0.2,0.1-0.3c-0.2-3.2-2.3-5.9-6-5.8
					c-4.5,0.1-6.2,5-6.2,8.7c-0.1,4.1,1.4,8.9,6.2,9.1c3.5,0.2,5.9-2.8,6-6c0-0.1,0-0.2-0.1-0.3c-0.1-0.1-0.2-0.1-0.2-0.1h-1.6
					c-0.2,0-0.3,0.1-0.3,0.3c-0.3,2-1.9,3.9-3.4,3.9c-2.9,0-3.9-4-4-6.8c0-2.3,1-6.6,3.8-6.6c2.1,0,3.3,1.6,3.6,3.6
					c0,0.2,0.2,0.3,0.3,0.3H118.4z"/>
				<path fill="#231F20" d="M137.7,22c0-0.9-0.7-1.5-1.5-1.5c-0.9,0-1.5,0.7-1.5,1.5c0,0.9,0.7,1.5,1.5,1.5
					C137,23.5,137.7,22.8,137.7,22z"/>
				<path fill="#231F20" d="M131.1,14.6c0,3.7-1.2,6.8-4,6.8c-2.8-0.2-4-3-4-6.8c0-3.7,1.3-6.8,4-6.8
					C129.8,7.8,131.1,10.8,131.1,14.6z M133.9,14.6c0-5-2.4-8.9-6.8-9c-4.4,0-6.7,3.9-6.7,8.9c0,5.5,2,8.8,6.7,9
					C131.1,23.5,133.9,20,133.9,14.6z"/>
				<path fill="#231F20" d="M151,6.4c0-0.2-0.2-0.3-0.3-0.3h-1.8c-0.2,0-0.3,0.2-0.3,0.3v10.1c0,0.9-0.9,4.4-3.7,4.8
					c-2.4,0.3-3.1-2.4-3.1-4.1V6.4c0-0.2-0.2-0.3-0.3-0.3h-1.9c-0.2,0-0.3,0.2-0.3,0.3v11.2c0,3.1,1.7,6,4.9,6
					c2.1,0,3.8-1.2,4.7-2.9v2.1c0,0.2,0.2,0.3,0.3,0.3h1.6c0.2,0,0.3-0.2,0.3-0.3V6.4z"/>
				<path fill="#231F20" d="M165.4,6.9c0.3-0.3,0.5-0.8-0.1-0.8l-1.9,0c-0.1,0-0.2,0.1-0.3,0.1l-6.5,8.3V0.3c0-0.2-0.2-0.3-0.3-0.3
					h-1.9c-0.2,0-0.3,0.2-0.3,0.3v22.5c0,0.2,0.2,0.3,0.3,0.3h1.9c0.2,0,0.3-0.2,0.3-0.3V18c0-0.1,0-0.2,0.1-0.2l3-3.9l4.1,9
					c0.1,0.1,0.2,0.2,0.3,0.2h2c0.1,0,0.2-0.1,0.3-0.2c0.1-0.1,0.1-0.2,0-0.3l-5.1-10.5L165.4,6.9z"/>
			</g>
			<g>
				<path fill="#231F20" d="M169.4,7.1c0,0,0,0.1,0,0.1c0,0,0,0.1-0.1,0.1c0,0-0.1,0.1-0.1,0.1c-0.1,0-0.1,0-0.2,0h-0.3V6.8h0.2
					c0.1,0,0.1,0,0.1,0c0,0,0.1,0,0.1,0c0.1,0,0.2,0.1,0.2,0.1C169.4,7,169.4,7.1,169.4,7.1z M169.8,8.4
					C169.8,8.4,169.8,8.4,169.8,8.4c0,0,0-0.1,0-0.1l-0.2-0.4c0,0,0-0.1-0.1-0.1c0,0,0-0.1-0.1-0.1c0,0-0.1-0.1-0.1-0.1
					c0,0-0.1,0-0.1-0.1c0.1,0,0.1,0,0.2-0.1c0.1,0,0.1-0.1,0.1-0.1c0,0,0.1-0.1,0.1-0.1c0-0.1,0-0.1,0-0.2s0-0.1,0-0.2
					c0-0.1-0.1-0.1-0.1-0.1c0,0-0.1-0.1-0.2-0.1c-0.1,0-0.1,0-0.2-0.1c0,0-0.1,0-0.1,0c0,0-0.1,0-0.1,0h-0.5c0,0-0.1,0-0.1,0
					c0,0,0,0,0,0.1v1.7c0,0,0,0,0,0c0,0,0,0,0,0c0,0,0,0,0,0c0,0,0,0,0.1,0c0,0,0.1,0,0.1,0c0,0,0,0,0,0c0,0,0,0,0,0c0,0,0,0,0,0
					V7.7h0.2c0.1,0,0.1,0,0.2,0c0,0,0.1,0,0.1,0.1c0,0,0.1,0.1,0.1,0.1c0,0,0,0.1,0.1,0.1l0.2,0.4c0,0,0,0,0,0c0,0,0,0,0,0
					c0,0,0,0,0,0c0,0,0,0,0.1,0C169.7,8.5,169.7,8.5,169.8,8.4C169.8,8.5,169.8,8.5,169.8,8.4C169.8,8.5,169.8,8.5,169.8,8.4
					C169.8,8.5,169.8,8.5,169.8,8.4z"/>
				<path fill="#231F20" d="M168.6,8.8c-0.6-0.3-1-1-0.7-1.6c0.3-0.6,1-1,1.6-0.7c0.6,0.3,1,1,0.7,1.6C170,8.7,169.2,9,168.6,8.8z
					 M170.5,7.6c0-0.2-0.1-0.5-0.1-0.7c-0.1-0.3-0.4-0.5-0.6-0.6c-0.5-0.3-1.2-0.2-1.7,0.1c-0.4,0.4-0.7,1-0.5,1.5
					c0.1,0.3,0.2,0.6,0.4,0.8c0.4,0.4,1,0.5,1.6,0.3c0.4-0.2,0.8-0.5,0.9-1C170.5,7.9,170.5,7.7,170.5,7.6z"/>
			</g>
		</g>
	</g>
	<g>
		<g>
			<path fill="#FCB12A" d="M63.8,32.8c-0.6,1.5,0.9,0.5,1.1,0.4c2.1-1.9,3.7-7.6,2.7-8.5c-1.2-1.1-6.8-1.1-9.3,0.7
				c-1,0.8-0.5,0.9,0.6,0.8c1.9-0.1,3.6-0.2,5.1-0.1c1.4,0.1,1.5,0.8,1.1,2.3C64.8,30.1,64.5,31.1,63.8,32.8z"/>
			<path fill="#FCB12A" d="M61.5,28.2c-14.4,5.9-31.1,5.1-44.8-2.1c-0.2-0.1-0.9-0.5-1.6-0.9c-0.6-0.3-0.7-0.2-0.8-0.1
				c-0.1,0.1-0.1,0.4,0.1,0.6c8,7.2,17.7,10.7,28.3,10.3c8.1-0.4,15.6-3.3,19.9-6.5c0.6-0.5,0.9-1.1,0.6-1.4
				C62.9,27.9,62.2,27.9,61.5,28.2z"/>
		</g>
	</g>
</g>
</svg>
