<?xml version="1.0" encoding="utf-8"?>
<!-- Generator: Adobe Illustrator 18.1.0, SVG Export Plug-In . SVG Version: 6.00 Build 0)  -->
<svg version="1.1" id="Layer_1" xmlns="http://www.w3.org/2000/svg" xmlns:xlink="http://www.w3.org/1999/xlink" x="0px" y="0px"
	 viewBox="0 0 157.5 33.2" enable-background="new 0 0 157.5 33.2" xml:space="preserve">
<g>
	<g>
		<g>
			<g>
				<path fill="#FFFFFF" d="M35.4,8.4c0-3-6.1-5-8-0.6c-1.5-3.4-6.3-3.3-7.6,0l0-1.7c0-0.3-0.2-0.5-0.5-0.5h-2.7
					c-0.3,0-0.5,0.2-0.5,0.5v14.7c0,0.3,0.2,0.5,0.5,0.5h2.9c0.3,0,0.5-0.2,0.5-0.5v-9.4c0-1.1,0.4-2.2,1.6-2.5
					c1.2-0.3,2.2,0.4,2.2,1.8l0,10c0,0.3,0.2,0.5,0.5,0.5h3c0.3,0,0.5-0.2,0.5-0.5v-9.9c0-2.3,3.7-2.8,3.7,0v9.9
					c0,0.3,0.2,0.5,0.5,0.5h2.9c0.3,0,0.5-0.2,0.5-0.5L35.4,8.4z"/>
				<path fill="#FFFFFF" d="M64.5,6.1c0-0.3-0.2-0.5-0.5-0.5h-9.6c-0.1,0-0.3,0.1-0.4,0.1c-0.1,0.1-0.1,0.2-0.1,0.4v2
					c0,0.3,0.3,0.5,0.5,0.5h5.1l-5.8,8.5c-0.3,0.5-0.3,0.8-0.3,0.9l0,2.4c0,0.5,0.2,0.7,0.8,0.5c3.5-1.5,7.3-1.6,10.1,0.1
					c0.2,0.1,0.5,0,0.5-0.4l0-2.6c0-0.2-0.1-0.3-0.2-0.4c-1.6-1-3.7-1.3-5.7-1.3l5.4-7.5c0.3-0.4,0.3-0.7,0.3-0.8L64.5,6.1z"/>
				<path fill="#FFFFFF" d="M75,13.5c0,2.9-0.1,5.2-2.3,5.2c-2,0-2.3-2.3-2.3-5.2c0-2.9,0.2-5.2,2.3-5.2C74.8,8.4,75,10.7,75,13.5z
					 M79.4,13.5c0-4.7-2.8-8.3-6.6-8.2c-3.9,0-6.6,3.7-6.6,8.3c0,4.7,2.8,8.3,6.7,8.2C76.7,21.6,79.4,18,79.4,13.5z"/>
				<path fill="#FFFFFF" d="M93.4,9.5c0-2.3-1.4-4.3-4.7-4.2c-1.5,0-2.7,1.2-3.4,2.9V6.1c0-0.3-0.2-0.5-0.5-0.5h-2.8
					c-0.3,0-0.5,0.2-0.5,0.5v14.8c0,0.3,0.2,0.5,0.5,0.5h3c0.3,0,0.5-0.2,0.5-0.5v-9.3c0-1.4,1.2-2.6,2.3-2.6c0.9,0,1.8,0.8,1.8,1.8
					v10.1c0,0.3,0.2,0.5,0.5,0.5h2.9c0.3,0,0.5-0.2,0.5-0.5V9.5z"/>
				<path fill="#FFFFFF" d="M46.5,13.7v1.9c0,1.5-1,2.8-1.8,3C43,19.1,42,17.9,42,16.5c0-1.7,1.5-2.7,2.8-2.8L46.5,13.7z M50.4,9.2
					c0-2.5-2.2-4.1-6.3-3.9c-2.5,0.1-5,1-5.6,4.1c0,0.1,0,0.3,0.1,0.4C38.7,9.9,38.8,10,39,10l2.6,0.3c0.2,0,0.5-0.2,0.6-0.4
					c0.2-1,0.9-1.7,2-1.7c1.6,0,2.3,0.8,2.3,1.9v1.4l-3.2,0.2c-2.7,0.2-5.2,2-5.3,5.4c0,3.1,2,4.6,4.9,4.5c1.7-0.1,3.2-0.8,4.3-2
					l1.6,1.8c0.1,0.1,0.2,0.2,0.4,0.2c0.1,0,0.3,0,0.4-0.1l2.1-2c0.2-0.2,0.2-0.5,0.1-0.7l-0.8-1c-0.2-0.2-0.3-1.1-0.3-1.6V9.2z"/>
				<path fill="#FFFFFF" d="M8.5,13.7v1.9c0,1.5-1,2.8-1.8,3c-1.6,0.5-2.7-0.8-2.6-2.1c0-1.7,1.5-2.7,2.8-2.8L8.5,13.7z M12.5,9.2
					c0-2.5-2.2-4.1-6.3-3.9c-2.5,0.1-5,1-5.6,4.1c0,0.1,0,0.3,0.1,0.4C0.8,9.9,0.9,10,1,10l2.6,0.3c0.2,0,0.5-0.2,0.6-0.4
					c0.2-1,0.9-1.7,2-1.7c1.6,0,2.3,0.8,2.3,1.9v1.4l-3.2,0.2c-2.7,0.2-5.2,2-5.3,5.4c0,3.1,2,4.6,4.9,4.5c1.7-0.1,3.2-0.8,4.3-2
					l1.6,1.8c0.1,0.1,0.2,0.2,0.4,0.2c0.1,0,0.3,0,0.4-0.1l2.1-2c0.2-0.2,0.2-0.5,0.1-0.7l-0.8-1c-0.2-0.2-0.3-1.1-0.3-1.6V9.2z"/>
			</g>
			<g>
				<path fill="#FFFFFF" d="M98,20.3c0-0.8-0.6-1.4-1.4-1.4c-0.8,0-1.4,0.6-1.4,1.4c0,0.8,0.6,1.4,1.4,1.4
					C97.4,21.7,98,21.1,98,20.3z"/>
				<path fill="#FFFFFF" d="M109.3,10.9c0.1,0,0.2,0,0.2-0.1c0.1-0.1,0.1-0.2,0.1-0.2c-0.2-3-2.1-5.4-5.6-5.4
					c-4.2,0.1-5.7,4.6-5.8,8.1c-0.1,3.8,1.3,8.2,5.8,8.4c3.2,0.2,5.4-2.6,5.6-5.6c0-0.1,0-0.2-0.1-0.2c-0.1-0.1-0.1-0.1-0.2-0.1
					h-1.5c-0.2,0-0.3,0.1-0.3,0.3c-0.3,1.9-1.7,3.6-3.2,3.6c-2.7,0-3.6-3.7-3.7-6.3c0-2.2,1-6.1,3.6-6.1c1.9,0,3,1.5,3.3,3.3
					c0,0.1,0.2,0.3,0.3,0.3H109.3z"/>
				<path fill="#FFFFFF" d="M127.1,20.3c0-0.8-0.6-1.4-1.4-1.4c-0.8,0-1.4,0.6-1.4,1.4c0,0.8,0.6,1.4,1.4,1.4
					C126.5,21.7,127.1,21.1,127.1,20.3z"/>
				<path fill="#FFFFFF" d="M121,13.5c0,3.5-1.1,6.3-3.7,6.3c-2.6-0.2-3.7-2.8-3.7-6.3c0-3.5,1.2-6.3,3.7-6.3
					C119.8,7.2,121,10,121,13.5z M123.7,13.5c0-4.6-2.2-8.2-6.3-8.3c-4.1,0-6.2,3.6-6.2,8.2c0,5.1,1.9,8.1,6.2,8.3
					C121.1,21.7,123.7,18.5,123.7,13.5z"/>
				<path fill="#FFFFFF" d="M139.5,5.9c0-0.2-0.2-0.3-0.3-0.3h-1.7c-0.2,0-0.3,0.2-0.3,0.3l0,9.3c0,0.9-0.8,4-3.4,4.4
					c-2.2,0.3-2.9-2.2-2.9-3.8l0-10c0-0.2-0.2-0.3-0.3-0.3h-1.8c-0.2,0-0.3,0.2-0.3,0.3v10.3c0,2.9,1.6,5.6,4.5,5.6
					c2,0,3.5-1.1,4.3-2.7v2c0,0.2,0.2,0.3,0.3,0.3h1.5c0.2,0,0.3-0.2,0.3-0.3V5.9z"/>
				<path fill="#FFFFFF" d="M152.8,6.4c0.2-0.3,0.5-0.7-0.1-0.7l-1.8,0c-0.1,0-0.2,0-0.2,0.1l-6,7.7l0-13.2c0-0.2-0.2-0.3-0.3-0.3
					h-1.7c-0.2,0-0.3,0.2-0.3,0.3v20.8c0,0.2,0.2,0.3,0.3,0.3h1.8c0.2,0,0.3-0.2,0.3-0.3v-4.4c0-0.1,0-0.1,0.1-0.2l2.7-3.6l3.8,8.3
					c0,0.1,0.2,0.2,0.3,0.2h1.9c0.1,0,0.2-0.1,0.3-0.1c0.1-0.1,0.1-0.2,0-0.3l-4.7-9.7L152.8,6.4z"/>
			</g>
			<g>
				<path fill="#FFFFFF" d="M156.4,6.6c0,0,0,0.1,0,0.1c0,0,0,0.1-0.1,0.1c0,0-0.1,0-0.1,0.1c-0.1,0-0.1,0-0.2,0h-0.3V6.3h0.2
					c0.1,0,0.1,0,0.1,0c0,0,0.1,0,0.1,0c0.1,0,0.1,0.1,0.2,0.1C156.4,6.5,156.4,6.5,156.4,6.6z M156.8,7.8
					C156.8,7.8,156.8,7.8,156.8,7.8C156.8,7.8,156.8,7.7,156.8,7.8l-0.2-0.5c0,0,0-0.1-0.1-0.1c0,0,0-0.1-0.1-0.1c0,0,0,0-0.1-0.1
					c0,0-0.1,0-0.1,0c0.1,0,0.1,0,0.2-0.1c0,0,0.1-0.1,0.1-0.1c0,0,0.1-0.1,0.1-0.1c0,0,0-0.1,0-0.2c0-0.1,0-0.1,0-0.2
					c0,0-0.1-0.1-0.1-0.1c0,0-0.1-0.1-0.2-0.1c-0.1,0-0.1,0-0.2-0.1c0,0-0.1,0-0.1,0c0,0-0.1,0-0.1,0h-0.4c0,0,0,0-0.1,0
					c0,0,0,0,0,0.1v1.6c0,0,0,0,0,0c0,0,0,0,0,0c0,0,0,0,0,0c0,0,0,0,0.1,0c0,0,0,0,0.1,0c0,0,0,0,0,0c0,0,0,0,0,0c0,0,0,0,0,0V7.1
					h0.2c0.1,0,0.1,0,0.2,0c0,0,0.1,0,0.1,0.1c0,0,0.1,0.1,0.1,0.1c0,0,0,0.1,0.1,0.1l0.2,0.4c0,0,0,0,0,0c0,0,0,0,0,0c0,0,0,0,0,0
					c0,0,0,0,0.1,0C156.7,7.8,156.7,7.8,156.8,7.8C156.8,7.8,156.8,7.8,156.8,7.8C156.8,7.8,156.8,7.8,156.8,7.8
					C156.8,7.8,156.8,7.8,156.8,7.8z"/>
				<path fill="#FFFFFF" d="M155.7,8.1c-0.6-0.2-0.9-0.9-0.7-1.5c0.2-0.6,0.9-0.9,1.5-0.7c0.6,0.2,0.9,0.9,0.7,1.5
					C156.9,8.1,156.3,8.3,155.7,8.1z M157.5,7c0-0.2,0-0.4-0.1-0.6c-0.1-0.3-0.3-0.5-0.6-0.6c-0.5-0.3-1.1-0.2-1.5,0.1
					c-0.4,0.3-0.6,0.9-0.5,1.4c0.1,0.3,0.2,0.5,0.4,0.7c0.4,0.3,1,0.5,1.4,0.3c0.4-0.2,0.7-0.5,0.8-0.9C157.5,7.3,157.5,7.2,157.5,7
					z"/>
			</g>
		</g>
	</g>
	<g>
		<g>
			<path fill="#FCB12A" d="M58.9,30.3c-0.6,1.4,0.9,0.5,1,0.3c1.9-1.8,3.4-7.1,2.5-7.9c-1.1-1-6.3-1-8.6,0.7c-1,0.7-0.4,0.8,0.6,0.8
				c1.8-0.1,3.4-0.2,4.7-0.1c1.3,0.1,1.4,0.7,1,2.1C59.8,27.8,59.6,28.7,58.9,30.3z"/>
			<path fill="#FCB12A" d="M56.8,26c-13.3,5.4-28.7,4.7-41.3-2c-0.2-0.1-0.8-0.4-1.5-0.8c-0.6-0.3-0.7-0.2-0.7-0.1
				c-0.1,0.1-0.1,0.4,0.1,0.6c7.4,6.7,16.4,9.9,26.1,9.5c7.4-0.3,14.4-3.1,18.3-6c0.6-0.4,0.8-1,0.6-1.2
				C58.1,25.7,57.4,25.8,56.8,26z"/>
		</g>
	</g>
</g>
</svg>
