<?xml version="1.0" encoding="utf-8"?>
<!-- Generator: Adobe Illustrator 18.0.0, SVG Export Plug-In . SVG Version: 6.00 Build 0)  -->
<!DOCTYPE svg PUBLIC "-//W3C//DTD SVG 1.1//EN" "http://www.w3.org/Graphics/SVG/1.1/DTD/svg11.dtd">
<svg version="1.1" id="Layer_1" xmlns="http://www.w3.org/2000/svg" xmlns:xlink="http://www.w3.org/1999/xlink" x="0px" y="0px"
	 viewBox="0 0 121.3 37.5" enable-background="new 0 0 121.3 37.5" xml:space="preserve">
<g>
	<g>
		<g>
			<g>
				<g>
					<path fill="#FFFFFF" d="M29.4,16.9c0-2.5-5-4.1-6.7-0.5c-1.3-2.8-5.3-2.7-6.3,0V15c0-0.2-0.2-0.4-0.4-0.4h-2.3
						c-0.2,0-0.4,0.2-0.4,0.4v12.3c0,0.2,0.2,0.4,0.4,0.4h2.4c0.2,0,0.4-0.2,0.4-0.4v-7.8c0-0.9,0.4-1.9,1.3-2.1
						c1-0.2,1.9,0.3,1.9,1.5v8.3c0,0.2,0.2,0.4,0.4,0.4h2.5c0.2,0,0.4-0.2,0.4-0.4l0-8.3c0-1.9,3.1-2.4,3.1,0v8.3
						c0,0.2,0.2,0.4,0.4,0.4H29c0.2,0,0.4-0.2,0.4-0.4V16.9z"/>
					<path fill="#FFFFFF" d="M53.6,15c0-0.2-0.2-0.4-0.4-0.4h-8c-0.1,0-0.2,0-0.3,0.1c-0.1,0.1-0.1,0.2-0.1,0.3v1.7
						c0,0.2,0.2,0.4,0.4,0.4h4.2l-4.8,7c-0.3,0.4-0.2,0.6-0.2,0.7l0,2c0,0.4,0.2,0.6,0.6,0.4c2.9-1.2,6.1-1.3,8.4,0.1
						c0.2,0.1,0.4,0,0.4-0.3l0-2.2c0-0.1-0.1-0.3-0.2-0.4c-1.4-0.9-3.1-1.1-4.8-1.1l4.5-6.2c0.2-0.3,0.2-0.6,0.2-0.7V15z"/>
					<path fill="#FFFFFF" d="M62.4,21.1c0,2.4-0.1,4.3-1.9,4.3c-1.7,0-1.9-1.9-1.9-4.3c0-2.4,0.1-4.3,1.9-4.3
						C62.2,16.8,62.4,18.7,62.4,21.1z M66,21.1c0-3.9-2.3-6.9-5.5-6.8c-3.2,0-5.5,3-5.5,6.9c0,3.9,2.3,6.9,5.5,6.8
						C63.7,27.8,66,24.9,66,21.1z"/>
					<path fill="#FFFFFF" d="M77.6,17.8c0-1.9-1.2-3.5-3.9-3.5c-1.3,0-2.3,1-2.8,2.4v-1.8c0-0.2-0.2-0.4-0.4-0.4h-2.3
						c-0.2,0-0.4,0.2-0.4,0.4v12.3c0,0.2,0.2,0.4,0.4,0.4h2.5c0.2,0,0.4-0.2,0.4-0.4v-7.7c0-1.2,1-2.1,1.9-2.2
						c0.8,0,1.5,0.7,1.5,1.5v8.4c0,0.2,0.2,0.4,0.4,0.4h2.4c0.2,0,0.4-0.2,0.4-0.4V17.8z"/>
					<path fill="#FFFFFF" d="M38.6,21.3v1.6c0,1.2-0.8,2.3-1.5,2.5c-1.3,0.4-2.2-0.6-2.2-1.7c0-1.4,1.3-2.3,2.3-2.3L38.6,21.3z
						 M41.9,17.5c0-2.1-1.8-3.4-5.3-3.3c-2.1,0.1-4.1,0.9-4.6,3.4c0,0.1,0,0.2,0.1,0.3c0.1,0.1,0.2,0.2,0.3,0.2l2.2,0.2
						c0.2,0,0.4-0.1,0.5-0.3c0.2-0.8,0.8-1.4,1.7-1.4c1.3,0,1.9,0.7,1.9,1.6v1.2l-2.7,0.2c-2.3,0.2-4.4,1.6-4.4,4.5
						c0,2.6,1.7,3.8,4,3.7c1.4-0.1,2.6-0.7,3.5-1.7l1.3,1.5c0.1,0.1,0.2,0.1,0.3,0.1c0.1,0,0.2,0,0.3-0.1l1.7-1.7
						c0.1-0.1,0.2-0.4,0.1-0.6l-0.6-0.8c-0.1-0.2-0.3-0.9-0.3-1.4V17.5z"/>
					<path fill="#FFFFFF" d="M7.1,21.3v1.6c0,1.2-0.8,2.3-1.5,2.5c-1.3,0.4-2.2-0.6-2.2-1.7c0-1.4,1.3-2.2,2.3-2.3L7.1,21.3z
						 M10.4,17.5c0-2.1-1.8-3.4-5.3-3.3C3,14.3,1,15.1,0.5,17.7c0,0.1,0,0.2,0.1,0.3c0.1,0.1,0.2,0.2,0.3,0.2L3,18.4
						c0.2,0,0.4-0.1,0.5-0.3c0.2-0.8,0.8-1.4,1.7-1.4c1.3,0,1.9,0.7,1.9,1.6v1.2l-2.7,0.2C2.1,19.9,0,21.3,0,24.1
						c0,2.6,1.7,3.8,4,3.7c1.4-0.1,2.6-0.7,3.5-1.7l1.3,1.5c0.1,0.1,0.2,0.1,0.3,0.1c0.1,0,0.2,0,0.3-0.1l1.7-1.7
						c0.1-0.1,0.2-0.4,0.1-0.6l-0.6-0.8c-0.1-0.2-0.3-0.9-0.3-1.4V17.5z"/>
				</g>
				<g>
					<path fill="#FFFFFF" d="M81.5,26.7c0-0.7-0.5-1.2-1.2-1.2c-0.7,0-1.2,0.5-1.2,1.2c0,0.7,0.5,1.2,1.2,1.2
						C80.9,27.9,81.5,27.4,81.5,26.7z"/>
					<path fill="#FFFFFF" d="M90.9,19c0.1,0,0.1,0,0.2-0.1c0-0.1,0.1-0.1,0.1-0.2c-0.2-2.5-1.7-4.5-4.6-4.5
						c-3.5,0.1-4.7,3.8-4.8,6.7c-0.1,3.1,1.1,6.8,4.8,7c2.7,0.1,4.5-2.2,4.6-4.6c0-0.1,0-0.1-0.1-0.2c0-0.1-0.1-0.1-0.2-0.1h-1.2
						c-0.1,0-0.2,0.1-0.3,0.2c-0.2,1.6-1.4,3-2.6,3c-2.2,0-3-3.1-3-5.2c0-1.8,0.8-5.1,3-5.1c1.6,0,2.5,1.2,2.7,2.8
						c0,0.1,0.1,0.2,0.3,0.2H90.9z"/>
					<path fill="#FFFFFF" d="M100.6,21.1c0,2.9-0.9,5.2-3.1,5.2c-2.1-0.1-3.1-2.3-3.1-5.2c0-2.9,1-5.2,3.1-5.2
						C99.6,15.9,100.6,18.2,100.6,21.1z M102.8,21.1c0-3.8-1.8-6.8-5.2-6.9c-3.4,0-5.2,3-5.2,6.8c0,4.2,1.5,6.8,5.1,6.9
						C100.6,27.9,102.8,25.3,102.8,21.1z"/>
				</g>
			</g>
		</g>
		<g>
			<g>
				<path fill="#FCB129" d="M49,35.1c-0.5,1.2,0.7,0.4,0.9,0.3c1.6-1.5,2.8-5.9,2.1-6.5C51,28,46.7,28,44.8,29.3
					C44,29.9,44.4,30,45.3,30c1.5-0.1,2.8-0.2,3.9-0.1c1.1,0.1,1.1,0.6,0.9,1.7C49.7,33,49.5,33.7,49,35.1z"/>
				<path fill="#FCB129" d="M47.2,31.5c-11.1,4.5-23.9,3.9-34.4-1.6c-0.1-0.1-0.7-0.4-1.2-0.7c-0.5-0.2-0.5-0.2-0.6-0.1
					c-0.1,0.1-0.1,0.3,0.1,0.5c6.2,5.6,13.6,8.2,21.7,7.9c6.2-0.3,11.9-2.5,15.2-5c0.5-0.4,0.7-0.8,0.5-1
					C48.3,31.3,47.7,31.3,47.2,31.5z"/>
			</g>
		</g>
		<path fill="#FFFFFF" d="M104.1,28.2V14.5h1.6v1.9c0.4-0.7,0.8-1.3,1.4-1.6c0.6-0.4,1.2-0.6,1.9-0.6c0.8,0,1.4,0.2,1.9,0.6
			c0.5,0.4,0.9,1,1.1,1.8c0.4-0.8,0.9-1.4,1.5-1.8c0.6-0.4,1.2-0.6,1.8-0.6c1,0,1.8,0.4,2.4,1.1c0.6,0.7,0.9,1.9,0.9,3.5v9.4h-1.8
			v-8.6c0-1-0.1-1.7-0.2-2.1c-0.1-0.4-0.4-0.7-0.7-0.9c-0.3-0.2-0.6-0.3-1-0.3c-0.8,0-1.4,0.3-1.9,1c-0.5,0.7-0.7,1.7-0.7,3.1v8
			h-1.8v-8.9c0-1.1-0.2-1.9-0.5-2.4c-0.3-0.5-0.8-0.7-1.4-0.7c-0.8,0-1.5,0.4-2,1.1c-0.5,0.7-0.7,2-0.7,3.8v7.1H104.1z"/>
		<path fill="#FFFFFF" d="M120.4,14C120.4,14,120.4,14,120.4,14c0,0.1-0.1,0.1-0.1,0.2c0,0-0.1,0-0.1,0c0,0-0.1,0-0.2,0h-0.2v-0.5
			h0.2c0,0,0.1,0,0.1,0c0,0,0.1,0,0.1,0c0.1,0,0.1,0,0.1,0.1C120.4,13.9,120.4,13.9,120.4,14z M120.7,15
			C120.7,14.9,120.7,14.9,120.7,15C120.7,14.9,120.7,14.9,120.7,15l-0.2-0.4c0,0,0-0.1-0.1-0.1c0,0,0-0.1-0.1-0.1c0,0,0,0-0.1-0.1
			c0,0,0,0-0.1,0c0,0,0.1,0,0.1-0.1c0,0,0.1,0,0.1-0.1c0,0,0-0.1,0.1-0.1c0,0,0-0.1,0-0.1c0,0,0-0.1,0-0.1c0,0,0-0.1-0.1-0.1
			c0,0-0.1-0.1-0.1-0.1c0,0-0.1,0-0.2,0c0,0,0,0-0.1,0c0,0-0.1,0-0.1,0h-0.4c0,0,0,0-0.1,0c0,0,0,0,0,0.1V15c0,0,0,0,0,0
			c0,0,0,0,0,0c0,0,0,0,0,0c0,0,0,0,0.1,0c0,0,0,0,0.1,0c0,0,0,0,0,0c0,0,0,0,0,0c0,0,0,0,0,0v-0.6h0.1c0.1,0,0.1,0,0.1,0
			c0,0,0.1,0,0.1,0.1c0,0,0,0,0.1,0.1c0,0,0,0.1,0.1,0.1l0.2,0.3c0,0,0,0,0,0c0,0,0,0,0,0c0,0,0,0,0,0c0,0,0,0,0.1,0
			C120.6,15,120.7,15,120.7,15C120.7,15,120.7,15,120.7,15C120.7,15,120.7,15,120.7,15C120.7,15,120.7,15,120.7,15z"/>
		<path fill="#FFFFFF" d="M119.8,15.2c-0.5-0.2-0.7-0.8-0.5-1.3c0.2-0.5,0.8-0.7,1.3-0.5c0.5,0.2,0.7,0.8,0.5,1.3
			C120.8,15.2,120.3,15.4,119.8,15.2z M121.3,14.3c0-0.2,0-0.3-0.1-0.5c-0.1-0.2-0.3-0.4-0.5-0.5c-0.4-0.2-0.9-0.2-1.3,0.1
			c-0.3,0.3-0.5,0.7-0.4,1.2c0.1,0.2,0.2,0.4,0.3,0.6c0.3,0.3,0.8,0.4,1.2,0.2c0.3-0.1,0.6-0.4,0.7-0.7
			C121.3,14.5,121.3,14.4,121.3,14.3z"/>
	</g>
</g>
<g>
</g>
<g>
</g>
<g>
</g>
<g>
</g>
<g>
</g>
<g>
</g>
</svg>
