<?xml version="1.0" encoding="utf-8"?>
<!-- Generator: Adobe Illustrator 18.1.0, SVG Export Plug-In . SVG Version: 6.00 Build 0)  -->
<svg version="1.1" id="Layer_1" xmlns="http://www.w3.org/2000/svg" xmlns:xlink="http://www.w3.org/1999/xlink" x="0px" y="0px"
	 viewBox="0 0 158 31.7" enable-background="new 0 0 158 31.7" xml:space="preserve">
<g>
	<g>
		<g>
			<g>
				<g>
					<path fill="#231F20" d="M38.3,4.8c0-3.2-6.6-5.4-8.7-0.6c-1.6-3.7-6.8-3.6-8.3,0V2.3c0-0.3-0.3-0.5-0.5-0.5h-3
						c-0.3,0-0.5,0.3-0.5,0.5v16c0,0.3,0.3,0.5,0.5,0.5H21c0.3,0,0.5-0.3,0.5-0.5V8.2c0-1.1,0.5-2.4,1.7-2.7c1.3-0.3,2.4,0.4,2.4,2
						v10.8c0,0.3,0.3,0.5,0.5,0.5h3.2c0.3,0,0.5-0.3,0.5-0.5l0-10.8c0-2.4,4.1-3.1,4.1,0v10.8c0,0.3,0.3,0.5,0.5,0.5h3.2
						c0.3,0,0.5-0.3,0.5-0.5V4.8z"/>
					<path fill="#231F20" d="M69.9,2.4c0-0.3-0.3-0.5-0.5-0.5H58.9c-0.1,0-0.3,0.1-0.4,0.2c-0.1,0.1-0.1,0.2-0.1,0.4v2.2
						c0,0.3,0.3,0.5,0.6,0.5h5.5l-6.2,9.2c-0.4,0.5-0.3,0.8-0.3,1l0,2.5c0,0.5,0.2,0.8,0.8,0.5c3.8-1.6,7.9-1.7,11,0.1
						c0.3,0.2,0.6,0,0.6-0.4l0-2.9c0-0.2-0.1-0.4-0.3-0.5c-1.8-1.1-4-1.4-6.2-1.4l5.8-8.1c0.3-0.4,0.3-0.8,0.3-0.9V2.4z"/>
					<path fill="#231F20" d="M81.3,10.3c0,3.1-0.1,5.6-2.4,5.6c-2.2,0-2.4-2.5-2.4-5.6c0-3.1,0.2-5.6,2.4-5.6
						C81,4.8,81.3,7.3,81.3,10.3z M86,10.3c0-5.1-3-9-7.1-8.9c-4.2,0-7.1,4-7.1,9c0,5.1,3,9,7.2,8.9C83.1,19.1,86,15.2,86,10.3z"/>
					<path fill="#231F20" d="M101.1,6c0-2.5-1.5-4.6-5.1-4.5c-1.7,0-3,1.3-3.7,3.1V2.3c0-0.3-0.3-0.5-0.5-0.5h-3.1
						c-0.3,0-0.5,0.3-0.5,0.5v16c0,0.3,0.3,0.5,0.5,0.5h3.2c0.3,0,0.5-0.3,0.5-0.5V8.3c0-1.5,1.3-2.8,2.5-2.8c1,0,2,0.9,2,2v10.9
						c0,0.3,0.3,0.5,0.5,0.5h3.1c0.3,0,0.5-0.3,0.5-0.5V6z"/>
					<path fill="#231F20" d="M50.3,10.6v2.1c0,1.6-1.1,3-2,3.2c-1.7,0.5-2.9-0.8-2.8-2.3c0.1-1.8,1.7-2.9,3-3L50.3,10.6z M54.6,5.7
						c0-2.7-2.3-4.4-6.8-4.2c-2.8,0.1-5.4,1.1-6.1,4.5c0,0.1,0,0.3,0.1,0.4c0.1,0.1,0.2,0.2,0.4,0.2L45,6.8c0.3,0,0.5-0.2,0.6-0.4
						c0.2-1.1,1-1.8,2.2-1.8c1.7,0,2.5,0.9,2.5,2.1v1.6l-3.5,0.3c-2.9,0.2-5.7,2.1-5.7,5.8c-0.1,3.4,2.2,5,5.3,4.8
						c1.8-0.1,3.4-0.9,4.6-2.2l1.7,1.9c0.1,0.1,0.2,0.2,0.4,0.2c0.1,0,0.3,0,0.4-0.2l2.3-2.2c0.2-0.2,0.2-0.5,0.1-0.7L55,14.9
						c-0.2-0.2-0.3-1.2-0.3-1.8V5.7z"/>
					<path fill="#231F20" d="M9.2,10.6v2.1c0,1.6-1.1,3-2,3.2c-1.7,0.5-2.9-0.8-2.8-2.3c0.1-1.8,1.7-2.9,3-3L9.2,10.6z M13.6,5.7
						c0-2.7-2.3-4.4-6.8-4.2C4,1.5,1.3,2.5,0.7,5.9c0,0.1,0,0.3,0.1,0.4C0.8,6.4,1,6.5,1.1,6.5l2.8,0.3c0.3,0,0.5-0.2,0.6-0.4
						c0.2-1,1-1.8,2.2-1.8c1.7,0,2.5,0.9,2.5,2.1v1.6L5.7,8.5C2.8,8.7,0.1,10.6,0,14.3c-0.1,3.4,2.2,5,5.3,4.8
						c1.8-0.1,3.4-0.9,4.6-2.2l1.7,1.9c0.1,0.1,0.2,0.2,0.4,0.2c0.1,0,0.3-0.1,0.4-0.2l2.3-2.2c0.2-0.2,0.2-0.5,0.1-0.7l-0.8-1.1
						c-0.2-0.2-0.3-1.2-0.3-1.8V5.7z"/>
				</g>
				<g>
					<path fill="#231F20" d="M106.2,17.7c0-0.9-0.7-1.5-1.5-1.5c-0.9,0-1.5,0.7-1.5,1.5c0,0.9,0.7,1.5,1.5,1.5
						C105.5,19.2,106.2,18.5,106.2,17.7z"/>
					<path fill="#231F20" d="M118.4,7.6c0.1,0,0.2,0,0.3-0.1c0.1-0.1,0.1-0.2,0.1-0.3c-0.2-3.2-2.3-5.9-6-5.8
						c-4.5,0.1-6.2,5-6.2,8.7c-0.1,4.1,1.4,8.9,6.2,9.1c3.5,0.2,5.9-2.8,6-6c0-0.1,0-0.2-0.1-0.3c-0.1-0.1-0.2-0.1-0.2-0.1h-1.6
						c-0.2,0-0.3,0.1-0.3,0.3c-0.3,2-1.9,3.9-3.4,3.9c-2.9,0-3.9-4-4-6.8c0-2.3,1-6.6,3.8-6.6c2.1,0,3.3,1.6,3.6,3.6
						c0,0.2,0.2,0.3,0.3,0.3H118.4z"/>
					<path fill="#231F20" d="M131.1,10.3c0,3.7-1.2,6.8-4,6.8c-2.8-0.2-4-3-4-6.8c0-3.7,1.3-6.8,4-6.8
						C129.8,3.6,131.1,6.6,131.1,10.3z M133.9,10.3c0-5-2.4-8.9-6.8-9c-4.4,0-6.7,3.9-6.7,8.9c0,5.5,2,8.8,6.7,9
						C131.1,19.3,133.9,15.8,133.9,10.3z"/>
				</g>
			</g>
		</g>
		<g>
			<g>
				<path fill="#FCB12A" d="M63.8,28.5c-0.6,1.5,0.9,0.5,1.1,0.4c2.1-1.9,3.7-7.6,2.7-8.5c-1.2-1.1-6.8-1.1-9.3,0.7
					c-1,0.8-0.5,0.9,0.6,0.8c1.9-0.1,3.6-0.2,5.1-0.1c1.4,0.1,1.5,0.8,1.1,2.3C64.8,25.8,64.5,26.8,63.8,28.5z"/>
				<path fill="#FCB12A" d="M61.5,23.9c-14.4,5.9-31.1,5.1-44.8-2.1c-0.2-0.1-0.9-0.5-1.6-0.9c-0.6-0.3-0.7-0.2-0.8-0.1
					c-0.1,0.1-0.1,0.4,0.1,0.6c8,7.2,17.7,10.7,28.3,10.3c8.1-0.4,15.6-3.3,19.9-6.5c0.6-0.5,0.9-1.1,0.6-1.4
					C62.9,23.6,62.2,23.6,61.5,23.9z"/>
			</g>
		</g>
	</g>
	<g>
		<path fill="#231F20" d="M135.7,19.5V1.7h2.1v2.5c0.5-0.9,1.1-1.6,1.8-2.1c0.7-0.5,1.5-0.8,2.4-0.8c1,0,1.8,0.3,2.5,0.8
			c0.7,0.5,1.2,1.3,1.4,2.3c0.6-1,1.2-1.8,1.9-2.3c0.7-0.5,1.5-0.8,2.4-0.8c1.3,0,2.4,0.5,3.2,1.4c0.8,1,1.2,2.5,1.2,4.6v12.3h-2.4
			V8.3c0-1.3-0.1-2.2-0.3-2.7c-0.2-0.5-0.5-0.9-0.9-1.2c-0.4-0.3-0.8-0.4-1.3-0.4c-1,0-1.9,0.4-2.5,1.3c-0.6,0.8-1,2.2-1,4v10.4H144
			V7.9c0-1.5-0.2-2.5-0.6-3.1c-0.4-0.6-1-0.9-1.8-0.9c-1.1,0-1.9,0.5-2.6,1.4c-0.6,0.9-0.9,2.6-0.9,5v9.3H135.7z"/>
	</g>
	<g>
		<path fill="#231F20" d="M156.9,1c0,0,0,0.1,0,0.1c0,0,0,0.1-0.1,0.1c0,0-0.1,0.1-0.1,0.1c-0.1,0-0.1,0-0.2,0h-0.3V0.7h0.2
			c0.1,0,0.1,0,0.1,0c0,0,0.1,0,0.1,0c0.1,0,0.2,0.1,0.2,0.1C156.9,0.9,156.9,1,156.9,1z M157.3,2.3C157.3,2.3,157.3,2.3,157.3,2.3
			c0,0,0-0.1,0-0.1l-0.2-0.4c0,0,0-0.1-0.1-0.1c0,0,0-0.1-0.1-0.1c0,0-0.1-0.1-0.1-0.1c0,0-0.1,0-0.1-0.1c0.1,0,0.1,0,0.2-0.1
			c0.1,0,0.1-0.1,0.1-0.1c0,0,0.1-0.1,0.1-0.1c0-0.1,0-0.1,0-0.2c0-0.1,0-0.1,0-0.2c0-0.1-0.1-0.1-0.1-0.1c0,0-0.1-0.1-0.2-0.1
			c-0.1,0-0.1,0-0.2-0.1c0,0-0.1,0-0.1,0c0,0-0.1,0-0.1,0H156c0,0-0.1,0-0.1,0c0,0,0,0,0,0.1v1.7c0,0,0,0,0,0c0,0,0,0,0,0
			c0,0,0,0,0,0c0,0,0,0,0.1,0c0,0,0.1,0,0.1,0c0,0,0,0,0,0c0,0,0,0,0,0c0,0,0,0,0,0V1.5h0.2c0.1,0,0.1,0,0.2,0c0,0,0.1,0,0.1,0.1
			c0,0,0.1,0.1,0.1,0.1c0,0,0,0.1,0.1,0.1l0.2,0.4c0,0,0,0,0,0c0,0,0,0,0,0c0,0,0,0,0,0c0,0,0,0,0.1,0
			C157.2,2.4,157.2,2.4,157.3,2.3C157.3,2.4,157.3,2.4,157.3,2.3C157.3,2.4,157.3,2.4,157.3,2.3C157.3,2.3,157.3,2.3,157.3,2.3z"/>
		<path fill="#231F20" d="M156.1,2.7c-0.6-0.3-1-1-0.7-1.6c0.3-0.6,1-1,1.6-0.7c0.6,0.3,1,1,0.7,1.6C157.5,2.6,156.7,2.9,156.1,2.7z
			 M158,1.5c0-0.2-0.1-0.5-0.1-0.7c-0.1-0.3-0.4-0.5-0.6-0.6c-0.5-0.3-1.2-0.2-1.7,0.1c-0.4,0.4-0.7,1-0.5,1.5
			c0.1,0.3,0.2,0.6,0.4,0.8c0.4,0.4,1,0.5,1.6,0.3c0.4-0.2,0.8-0.5,0.9-1C158,1.8,158,1.6,158,1.5z"/>
	</g>
</g>
</svg>
