<?xml version="1.0" encoding="utf-8"?>
<!-- Generator: Adobe Illustrator 18.0.0, SVG Export Plug-In . SVG Version: 6.00 Build 0)  -->
<!DOCTYPE svg PUBLIC "-//W3C//DTD SVG 1.1//EN" "http://www.w3.org/Graphics/SVG/1.1/DTD/svg11.dtd">
<svg version="1.1" id="Layer_1" xmlns="http://www.w3.org/2000/svg" xmlns:xlink="http://www.w3.org/1999/xlink" x="0px" y="0px"
	 viewBox="0 0 130.9 37.2" enable-background="new 0 0 130.9 37.2" xml:space="preserve">
<g>
	<g>
		<g>
			<path fill="#FFFFFF" d="M0.8,1.1h1.5c0.7,0,1.3,0.1,1.6,0.3s0.5,0.6,0.5,1c0,0.3-0.1,0.6-0.3,0.8C3.9,3.5,3.6,3.6,3.3,3.7v0
				C4.1,3.8,4.5,4.3,4.5,5c0,0.5-0.2,0.9-0.5,1.1C3.7,6.4,3.3,6.6,2.7,6.6H0.8V1.1z M1.4,3.4h1c0.4,0,0.8-0.1,1-0.2s0.3-0.4,0.3-0.7
				c0-0.3-0.1-0.5-0.3-0.7c-0.2-0.1-0.6-0.2-1-0.2H1.4V3.4z M1.4,4v2h1.1c0.4,0,0.8-0.1,1-0.3C3.8,5.6,3.9,5.3,3.9,5
				c0-0.3-0.1-0.6-0.3-0.7C3.3,4.1,2.9,4,2.5,4H1.4z"/>
			<path fill="#FFFFFF" d="M9.7,1.1v3.5c0,0.6-0.2,1.1-0.6,1.5C8.7,6.5,8.2,6.7,7.5,6.7C6.9,6.7,6.4,6.5,6,6.1
				C5.7,5.8,5.5,5.3,5.5,4.6V1.1h0.6v3.6c0,0.5,0.1,0.8,0.4,1.1C6.7,6,7.1,6.1,7.6,6.1c0.5,0,0.8-0.1,1.1-0.4C8.9,5.5,9,5.1,9,4.7
				V1.1H9.7z"/>
			<path fill="#FFFFFF" d="M12.3,3.8l1.5-2.7h0.7l-1.8,3.4v2.1H12V4.5l-1.8-3.4h0.7L12.3,3.8z"/>
			<path fill="#FFFFFF" d="M21.1,6.6h-0.7l-3-4.6h0c0,0.5,0.1,1,0.1,1.5v3.1h-0.6V1.1h0.7l3,4.6h0c0-0.1,0-0.3,0-0.6
				c0-0.4,0-0.6,0-0.8V1.1h0.6V6.6z"/>
			<path fill="#FFFFFF" d="M27.2,3.8c0,0.9-0.2,1.6-0.7,2.1s-1.1,0.8-1.8,0.8c-0.8,0-1.4-0.2-1.9-0.7s-0.7-1.2-0.7-2.1
				c0-0.9,0.2-1.6,0.7-2.1C23.2,1.3,23.9,1,24.7,1c0.8,0,1.4,0.2,1.8,0.7C27,2.3,27.2,3,27.2,3.8z M22.8,3.8c0,0.7,0.2,1.3,0.5,1.7
				c0.3,0.4,0.8,0.6,1.4,0.6c0.6,0,1.1-0.2,1.4-0.6s0.5-0.9,0.5-1.7c0-0.7-0.2-1.3-0.5-1.7s-0.8-0.6-1.4-0.6c-0.6,0-1.1,0.2-1.4,0.6
				C23,2.5,22.8,3.1,22.8,3.8z"/>
			<path fill="#FFFFFF" d="M33,6.6h-0.6l-1.1-3.7c-0.1-0.2-0.1-0.4-0.2-0.6C31,2,31,1.9,31,1.8c-0.1,0.3-0.1,0.7-0.3,1.1l-1.1,3.6
				H29l-1.5-5.5h0.7l0.9,3.4c0.1,0.5,0.2,0.9,0.3,1.3c0.1-0.5,0.2-0.9,0.3-1.3l1-3.3h0.7l1,3.4c0.1,0.4,0.2,0.8,0.3,1.3
				c0-0.4,0.1-0.8,0.3-1.3l0.9-3.4h0.7L33,6.6z"/>
			<path fill="#FFFFFF" d="M40.4,6.6l-0.7-1.7h-2.2l-0.7,1.7h-0.6l2.2-5.5h0.5L41,6.6H40.4z M39.5,4.3l-0.6-1.7
				c-0.1-0.2-0.2-0.5-0.3-0.8c-0.1,0.2-0.1,0.5-0.2,0.8l-0.6,1.7H39.5z"/>
			<path fill="#FFFFFF" d="M43.3,6.6h-0.6V1.7h-1.7V1.1H45v0.6h-1.7V6.6z"/>
		</g>
	</g>
	<g>
		<g>
			<g>
				<path fill="#FFFFFF" d="M29.4,16.5c0-2.5-5-4.1-6.7-0.5c-1.3-2.8-5.3-2.7-6.3,0v-1.4c0-0.2-0.2-0.4-0.4-0.4h-2.3
					c-0.2,0-0.4,0.2-0.4,0.4v12.3c0,0.2,0.2,0.4,0.4,0.4h2.4c0.2,0,0.4-0.2,0.4-0.4v-7.8c0-0.9,0.4-1.9,1.3-2.1
					c1-0.2,1.9,0.3,1.9,1.5v8.3c0,0.2,0.2,0.4,0.4,0.4h2.5c0.2,0,0.4-0.2,0.4-0.4l0-8.3c0-1.9,3.1-2.4,3.1,0v8.3
					c0,0.2,0.2,0.4,0.4,0.4H29c0.2,0,0.4-0.2,0.4-0.4V16.5z"/>
				<path fill="#FFFFFF" d="M53.6,14.6c0-0.2-0.2-0.4-0.4-0.4h-8c-0.1,0-0.2,0-0.3,0.1c-0.1,0.1-0.1,0.2-0.1,0.3v1.7
					c0,0.2,0.2,0.4,0.4,0.4h4.2l-4.8,7c-0.3,0.4-0.2,0.6-0.2,0.7l0,2c0,0.4,0.2,0.6,0.6,0.4c2.9-1.2,6.1-1.3,8.4,0.1
					c0.2,0.1,0.4,0,0.4-0.3l0-2.2c0-0.1-0.1-0.3-0.2-0.4c-1.4-0.9-3.1-1.1-4.8-1.1l4.5-6.2c0.2-0.3,0.2-0.6,0.2-0.7V14.6z"/>
				<path fill="#FFFFFF" d="M62.4,20.8c0,2.4-0.1,4.3-1.9,4.3c-1.7,0-1.9-1.9-1.9-4.3c0-2.4,0.1-4.3,1.9-4.3
					C62.2,16.5,62.4,18.4,62.4,20.8z M66,20.7c0-3.9-2.3-6.9-5.5-6.8c-3.2,0-5.5,3-5.5,6.9c0,3.9,2.3,6.9,5.5,6.8
					C63.7,27.5,66,24.5,66,20.7z"/>
				<path fill="#FFFFFF" d="M77.6,17.4c0-1.9-1.2-3.5-3.9-3.5c-1.3,0-2.3,1-2.8,2.4v-1.8c0-0.2-0.2-0.4-0.4-0.4h-2.3
					c-0.2,0-0.4,0.2-0.4,0.4v12.3c0,0.2,0.2,0.4,0.4,0.4h2.5c0.2,0,0.4-0.2,0.4-0.4v-7.7c0-1.2,1-2.1,1.9-2.2c0.8,0,1.5,0.7,1.5,1.5
					v8.4c0,0.2,0.2,0.4,0.4,0.4h2.4c0.2,0,0.4-0.2,0.4-0.4V17.4z"/>
				<path fill="#FFFFFF" d="M38.6,21v1.6c0,1.2-0.8,2.3-1.5,2.5c-1.3,0.4-2.2-0.6-2.2-1.7c0-1.4,1.3-2.3,2.3-2.3L38.6,21z
					 M41.9,17.2c0-2.1-1.8-3.4-5.3-3.3c-2.1,0.1-4.1,0.9-4.6,3.4c0,0.1,0,0.2,0.1,0.3c0.1,0.1,0.2,0.2,0.3,0.2l2.2,0.2
					c0.2,0,0.4-0.1,0.5-0.3c0.2-0.8,0.8-1.4,1.7-1.4c1.3,0,1.9,0.7,1.9,1.6v1.2l-2.7,0.2c-2.3,0.2-4.4,1.6-4.4,4.5
					c0,2.6,1.7,3.8,4,3.7c1.4-0.1,2.6-0.7,3.5-1.7l1.3,1.5c0.1,0.1,0.2,0.1,0.3,0.1c0.1,0,0.2,0,0.3-0.1l1.7-1.7
					c0.1-0.1,0.2-0.4,0.1-0.6l-0.6-0.8c-0.1-0.2-0.3-0.9-0.3-1.4V17.2z"/>
				<path fill="#FFFFFF" d="M7.1,20.9v1.6c0,1.2-0.8,2.3-1.5,2.5c-1.3,0.4-2.2-0.6-2.2-1.7c0-1.4,1.3-2.2,2.3-2.3L7.1,20.9z
					 M10.4,17.2c0-2.1-1.8-3.4-5.3-3.3C3,14,1,14.8,0.5,17.3c0,0.1,0,0.2,0.1,0.3c0.1,0.1,0.2,0.2,0.3,0.2L3,18.1
					c0.2,0,0.4-0.1,0.5-0.3c0.2-0.8,0.8-1.4,1.7-1.4c1.3,0,1.9,0.7,1.9,1.6v1.2l-2.7,0.2C2.1,19.5,0,21,0,23.8c0,2.6,1.7,3.8,4,3.7
					c1.4-0.1,2.6-0.7,3.5-1.7l1.3,1.5c0.1,0.1,0.2,0.1,0.3,0.1c0.1,0,0.2,0,0.3-0.1l1.7-1.7c0.1-0.1,0.2-0.4,0.1-0.6l-0.6-0.8
					c-0.1-0.2-0.3-0.9-0.3-1.4V17.2z"/>
			</g>
			<g>
				<path fill="#FFFFFF" d="M81.5,26.4c0-0.7-0.5-1.2-1.2-1.2c-0.7,0-1.2,0.5-1.2,1.2c0,0.7,0.5,1.2,1.2,1.2
					C80.9,27.6,81.5,27,81.5,26.4z"/>
				<path fill="#FFFFFF" d="M90.9,18.6c0.1,0,0.1,0,0.2-0.1c0-0.1,0.1-0.1,0.1-0.2c-0.2-2.5-1.7-4.5-4.6-4.5
					c-3.5,0.1-4.7,3.8-4.8,6.7c0,3.1,1.1,6.8,4.8,7c2.7,0.1,4.5-2.2,4.6-4.6c0-0.1,0-0.1-0.1-0.2c0-0.1-0.1-0.1-0.2-0.1h-1.2
					c-0.1,0-0.2,0.1-0.3,0.2c-0.2,1.6-1.4,3-2.6,3c-2.2,0-3-3.1-3-5.2c0-1.8,0.8-5.1,3-5.1c1.6,0,2.5,1.2,2.7,2.8
					c0,0.1,0.1,0.2,0.3,0.2H90.9z"/>
				<path fill="#FFFFFF" d="M105.7,26.4c0-0.7-0.5-1.2-1.2-1.2c-0.7,0-1.2,0.5-1.2,1.2c0,0.7,0.5,1.2,1.2,1.2
					C105.1,27.6,105.7,27,105.7,26.4z"/>
				<path fill="#FFFFFF" d="M100.6,20.7c0,2.9-0.9,5.2-3.1,5.2c-2.1-0.1-3.1-2.3-3.1-5.2c0-2.9,1-5.2,3.1-5.2
					C99.6,15.6,100.6,17.9,100.6,20.7z M102.8,20.7c0-3.8-1.8-6.8-5.2-6.9c-3.4,0-5.2,3-5.2,6.8c0,4.2,1.5,6.8,5.1,6.9
					C100.6,27.6,102.8,24.9,102.8,20.7z"/>
				<path fill="#FFFFFF" d="M115.9,14.4c0-0.1-0.1-0.3-0.3-0.3h-1.4c-0.1,0-0.3,0.1-0.3,0.3v7.7c0,0.7-0.7,3.3-2.8,3.6
					c-1.8,0.3-2.4-1.8-2.4-3.1v-8.3c0-0.1-0.1-0.3-0.3-0.3H107c-0.1,0-0.3,0.1-0.3,0.3V23c0,2.4,1.3,4.6,3.8,4.6
					c1.6,0,2.9-0.9,3.6-2.2v1.6c0,0.1,0.1,0.3,0.3,0.3h1.3c0.1,0,0.3-0.1,0.3-0.3V14.4z"/>
				<path fill="#FFFFFF" d="M126.9,14.8c0.2-0.3,0.4-0.6-0.1-0.6l-1.5,0c-0.1,0-0.2,0-0.2,0.1l-5,6.4V9.8c0-0.1-0.1-0.3-0.3-0.3
					h-1.4c-0.1,0-0.3,0.1-0.3,0.3v17.2c0,0.1,0.1,0.3,0.3,0.3h1.5c0.1,0,0.3-0.1,0.3-0.3v-3.7c0-0.1,0-0.1,0.1-0.2l2.3-3l3.1,6.9
					c0,0.1,0.1,0.2,0.2,0.2h1.6c0.1,0,0.2,0,0.2-0.1c0-0.1,0.1-0.2,0-0.3l-3.9-8.1L126.9,14.8z"/>
			</g>
			<g>
				<path fill="#FFFFFF" d="M130,15C130,15.1,130,15.1,130,15c0,0.1-0.1,0.1-0.1,0.2c0,0-0.1,0-0.1,0.1c0,0-0.1,0-0.2,0h-0.2v-0.5
					h0.2c0,0,0.1,0,0.1,0c0,0,0.1,0,0.1,0c0.1,0,0.1,0,0.1,0.1C130,14.9,130,15,130,15z M130.3,16C130.3,16,130.3,16,130.3,16
					C130.3,16,130.3,16,130.3,16l-0.2-0.4c0,0,0-0.1-0.1-0.1c0,0,0-0.1-0.1-0.1c0,0,0,0-0.1-0.1c0,0,0,0-0.1,0c0,0,0.1,0,0.1-0.1
					c0,0,0.1,0,0.1-0.1c0,0,0-0.1,0.1-0.1c0,0,0-0.1,0-0.1c0,0,0-0.1,0-0.1c0,0,0-0.1-0.1-0.1c0,0-0.1-0.1-0.1-0.1c0,0-0.1,0-0.2,0
					c0,0,0,0-0.1,0c0,0-0.1,0-0.1,0h-0.4c0,0,0,0-0.1,0c0,0,0,0,0,0.1V16c0,0,0,0,0,0c0,0,0,0,0,0c0,0,0,0,0,0c0,0,0,0,0.1,0
					c0,0,0,0,0.1,0c0,0,0,0,0,0c0,0,0,0,0,0c0,0,0,0,0,0v-0.6h0.1c0,0,0.1,0,0.1,0c0,0,0.1,0,0.1,0.1c0,0,0.1,0,0.1,0.1
					c0,0,0,0.1,0.1,0.1l0.2,0.3c0,0,0,0,0,0c0,0,0,0,0,0c0,0,0,0,0,0c0,0,0,0,0.1,0C130.2,16.1,130.2,16.1,130.3,16
					C130.3,16.1,130.3,16.1,130.3,16C130.3,16,130.3,16,130.3,16C130.3,16,130.3,16,130.3,16z"/>
				<path fill="#FFFFFF" d="M129.4,16.3c-0.5-0.2-0.7-0.8-0.5-1.3c0.2-0.5,0.8-0.7,1.3-0.5c0.5,0.2,0.7,0.8,0.5,1.3
					C130.4,16.2,129.9,16.5,129.4,16.3z M130.9,15.4c0-0.2,0-0.3-0.1-0.5c-0.1-0.2-0.3-0.4-0.5-0.5c-0.4-0.2-0.9-0.2-1.3,0.1
					c-0.3,0.3-0.5,0.7-0.4,1.2c0.1,0.2,0.2,0.4,0.3,0.6c0.3,0.3,0.8,0.4,1.2,0.2c0.3-0.1,0.6-0.4,0.7-0.7
					C130.8,15.6,130.9,15.5,130.9,15.4z"/>
			</g>
		</g>
	</g>
	<g>
		<g>
			<path fill="#FCB129" d="M49,34.7c-0.5,1.2,0.7,0.4,0.9,0.3c1.6-1.5,2.8-5.9,2.1-6.5c-0.9-0.8-5.2-0.8-7.1,0.5
				c-0.8,0.6-0.3,0.7,0.5,0.6c1.5-0.1,2.8-0.2,3.9-0.1c1.1,0.1,1.1,0.6,0.9,1.7C49.7,32.6,49.5,33.4,49,34.7z"/>
			<path fill="#FCB129" d="M47.2,31.2c-11.1,4.5-23.9,3.9-34.4-1.6c-0.1-0.1-0.7-0.4-1.2-0.7c-0.5-0.2-0.5-0.2-0.6-0.1
				c-0.1,0.1-0.1,0.3,0.1,0.5c6.2,5.6,13.6,8.2,21.7,7.9c6.2-0.3,11.9-2.5,15.2-5c0.5-0.4,0.7-0.8,0.5-1
				C48.3,30.9,47.7,31,47.2,31.2z"/>
		</g>
	</g>
</g>
<g>
</g>
<g>
</g>
<g>
</g>
<g>
</g>
<g>
</g>
<g>
</g>
</svg>
