<?xml version="1.0" encoding="utf-8"?>
<!-- Generator: Adobe Illustrator 18.0.0, SVG Export Plug-In . SVG Version: 6.00 Build 0)  -->
<!DOCTYPE svg PUBLIC "-//W3C//DTD SVG 1.1//EN" "http://www.w3.org/Graphics/SVG/1.1/DTD/svg11.dtd">
<svg version="1.1" id="Layer_1" xmlns="http://www.w3.org/2000/svg" xmlns:xlink="http://www.w3.org/1999/xlink" x="0px" y="0px"
	 viewBox="0 0 32 33.2" enable-background="new 0 0 32 33.2" xml:space="preserve">
<path fill="#1E427F" d="M30.9,14.4l-5.7-4.4c-1.7-1.2-4.2-3.5-5.9-4.7l-5.7-4.7c-1.7-1.2-3-0.2-3,2.5v4c-0.7-0.7-1.5-1.2-2-1.7
	L3,0.5C1.2-0.7,0,0.3,0,3v8.9v9.4v8.9c0,2.7,1.2,3.7,3,2.5l5.7-4.4c0.5-0.5,1.2-1.2,2-1.7v3.7c0,2.7,1.2,3.7,3,2.5l5.7-4.4
	c1.7-1.2,4.2-3.5,5.9-4.7l5.7-4.4C32.4,17.8,32.4,15.6,30.9,14.4z M20.3,19.3l-5.7,4.4c-1,0.7-2.5,2-3.7,3v-5.2v-9.4V7
	c1.2,1,2.7,2.2,3.7,3l5.7,4.4C21.7,15.6,21.7,17.8,20.3,19.3z"/>
</svg>
