<?xml version="1.0" encoding="utf-8"?>
<!-- Generator: Adobe Illustrator 18.0.0, SVG Export Plug-In . SVG Version: 6.00 Build 0)  -->
<!DOCTYPE svg PUBLIC "-//W3C//DTD SVG 1.1//EN" "http://www.w3.org/Graphics/SVG/1.1/DTD/svg11.dtd">
<svg version="1.1" id="Layer_1" xmlns="http://www.w3.org/2000/svg" xmlns:xlink="http://www.w3.org/1999/xlink" x="0px" y="0px"
	 viewBox="0 0 24.7 24.6" enable-background="new 0 0 24.7 24.6" xml:space="preserve">
<path fill="#FFFFFF" d="M1.1,0h22.5c0.7,0,1,0.6,1,1.9v21c0,1.2-0.4,1.7-1.2,1.7H1.2c-0.8,0-1.2-0.5-1.2-1.4V1.4
	C0.1,0.5,0.5,0,1.1,0z M14.1,7.2v3.2l-0.1,0.1h-2.3l-0.1,0.1v3.2l0.1,0.1h2.2c0.1,0,0.2,0.2,0.2,0.4v8.5L14,22.9v0.1l0.2,0.1h3.5
	l0.2-0.2v-8.8l0.1-0.1h2.9l0.4-3.5H18l-0.1-0.1V7.2c0-0.3,0.4-0.4,1.3-0.4h1.9l0.1-0.1V3.6l-0.1-0.1H18c-1.9,0-3.1,0.8-3.7,2.4
	C14.1,6.2,14.1,6.6,14.1,7.2z"/>
</svg>
