<?xml version="1.0" encoding="utf-8"?>
<!-- Generator: Adobe Illustrator 18.0.0, SVG Export Plug-In . SVG Version: 6.00 Build 0)  -->
<!DOCTYPE svg PUBLIC "-//W3C//DTD SVG 1.1//EN" "http://www.w3.org/Graphics/SVG/1.1/DTD/svg11.dtd">
<svg version="1.1" id="Layer_1" xmlns="http://www.w3.org/2000/svg" xmlns:xlink="http://www.w3.org/1999/xlink" x="0px" y="0px"
	 viewBox="0 0 260.4 52.3" enable-background="new 0 0 260.4 52.3" xml:space="preserve">
<g>
	<g>
		<g>
			<path fill="#29AAE1" d="M233.1,0v28.3h27.2V0H233.1z M256.5,15.7l-3.7,3c-1.1,0.9-2.8,2.3-3.9,3.1l-3.7,3c-1.1,0.9-2,0.2-2-1.6
				v-2.5c-0.5,0.4-1,0.8-1.4,1.1l-3.7,3c-1.1,0.9-2,0.2-2-1.6v-6V11v-6c0-1.7,0.9-2.4,2-1.6l3.7,3c0.4,0.3,0.9,0.7,1.4,1.1V5.1
				c0-1.7,0.9-2.4,2-1.6l3.7,3c1.1,0.9,2.8,2.3,3.9,3.1l3.7,3C257.6,13.5,257.6,14.9,256.5,15.7z"/>
			<path fill="#29AAE1" d="M249.5,12.6l-3.7-3c-0.7-0.6-1.6-1.3-2.5-2V11v6.3v3.4c0.9-0.7,1.9-1.5,2.5-2l3.7-3
				C250.5,14.9,250.5,13.5,249.5,12.6"/>
		</g>
	</g>
	<g>
		<path fill="#FFFFFF" d="M0.8,4.4h11.8c0.7,0,1.3,0.4,1.3,1.3S13.3,7,12.6,7H3.4v4.1H10c0.7,0,1.3,0.4,1.3,1.3s-0.6,1.3-1.3,1.3
			H3.4v9.9c0,0.9-0.4,1.3-1.3,1.3c-1,0-1.3-0.5-1.3-1.3V4.4z"/>
		<path fill="#FFFFFF" d="M25.1,5.7c0.2-0.7,0.5-1.4,1.4-1.4c0.9,0,1.2,0.7,1.4,1.4l5.1,18c0.2,0.6-0.5,1.3-1.3,1.3
			c-0.8,0-1.2-0.7-1.4-1.3l-1-3.2h-5.7l-1,3.2c-0.2,0.6-0.6,1.3-1.4,1.3c-0.7,0-1.5-0.7-1.3-1.3L25.1,5.7z M26.5,10.7L26.5,10.7
			l-2.1,7.2h4.2L26.5,10.7z"/>
		<path fill="#FFFFFF" d="M51.3,19.8c0.5,0.7,0.9,1.3,0.9,2.2c0,2-1.5,3-3.4,3H43c-1,0-1.9-0.2-2.7-0.9c-0.7-0.6-1.2-1.5-1.2-2.5
			c0-0.9,0.5-1.6,1.4-1.6c0.8,0,1.2,0.6,1.2,1.4c0,0.8,0.4,0.9,1.2,0.9h5.8c0.2,0,0.9,0.1,0.9-0.3c0-0.2-0.4-0.6-0.5-0.8L39.9,9.6
			c-0.6-0.7-0.9-1.2-0.9-2.2c0-1.1,0.5-2,1.4-2.6c0.7-0.5,1.4-0.5,2.2-0.5h5.6c1,0,1.9,0.2,2.6,0.9c0.7,0.6,1.2,1.6,1.2,2.5
			c0,0.9-0.4,1.5-1.4,1.5c-0.8,0-1.3-0.5-1.3-1.2c0-0.9-0.5-1-1.3-1h-5.6c-0.3,0-0.9-0.1-0.9,0.4c0,0.2,0.3,0.6,0.4,0.7L51.3,19.8z"
			/>
		<path fill="#FFFFFF" d="M60.9,7v1c0,0.9-0.4,1.3-1.3,1.3c-1,0-1.3-0.5-1.3-1.3V4.4h13.1V8c0,0.9-0.4,1.3-1.3,1.3S68.7,8.8,68.7,8
			V7h-2.6v16.7c0,0.9-0.4,1.3-1.3,1.3s-1.3-0.5-1.3-1.3V7H60.9z"/>
		<path fill="#FFFFFF" d="M96.5,4.4h11.8c0.7,0,1.3,0.4,1.3,1.3S109,7,108.3,7h-9.1v4.1h6.5c0.7,0,1.3,0.4,1.3,1.3s-0.6,1.3-1.3,1.3
			h-6.5v9.9c0,0.9-0.4,1.3-1.3,1.3c-1,0-1.3-0.5-1.3-1.3V4.4z"/>
		<path fill="#FFFFFF" d="M128.1,11.8c0.5,1,0.7,1.8,0.7,3c0,1.3-0.3,2.1-0.9,3.2l-2.4,4.9c-0.6,1.3-1.7,2.2-3.2,2.2
			s-2.6-0.9-3.2-2.2l-2.4-4.9c-0.5-1.1-0.9-1.9-0.9-3.2c0-1.1,0.2-1.9,0.7-3l2.7-5.3c0.6-1.2,1.7-2.2,3.2-2.2s2.6,0.9,3.2,2.2
			L128.1,11.8z M123.1,7.8c-0.2-0.4-0.3-0.8-0.9-0.8s-0.7,0.4-0.9,0.8l-2.4,4.8c-0.4,0.8-0.6,1.3-0.6,2.2c0,0.7,0.2,1.2,0.5,1.8
			l2.6,5.1c0.2,0.4,0.4,0.8,0.9,0.8c0.5,0,0.7-0.4,0.9-0.8l2.6-5.1c0.3-0.6,0.5-1.1,0.5-1.8c0-0.9-0.2-1.4-0.6-2.2L123.1,7.8z"/>
		<path fill="#FFFFFF" d="M137.5,23.7c0,0.9-0.4,1.3-1.3,1.3s-1.3-0.5-1.3-1.3V4.4h8.9c2.1,0,4.2,1.5,4.2,3.9v1.8
			c0,2.5-2.1,3.8-4.2,3.8h-2.4l6,8.6c0.3,0.4,0.7,0.9,0.7,1.4c0,0.7-0.6,1.2-1.4,1.2c-0.5,0-0.9-0.3-1.2-0.7l-7.3-10.5h-0.6V23.7z
			 M137.5,11.2h5.9c0.7,0,1.9-0.1,1.9-1.1V8.2c0-1.1-1.1-1.2-1.9-1.2h-5.9V11.2z"/>
		<path fill="#FFFFFF" d="M162.2,25.1c-0.9,0-1.4-0.2-1.6-1.1h-0.1c-0.2,1-0.7,1.1-1.6,1.1h-2c-0.9,0-1.2-0.2-1.6-1l-0.9-1.6
			c-0.3-0.6-0.4-0.6-0.4-1.4V5.7c0-0.9,0.4-1.3,1.3-1.3c1,0,1.3,0.5,1.3,1.3v15.4l0.7,1.3h1.1l0.7-1.3v-8.4c0-0.8,0.4-1.6,1.3-1.6
			s1.3,0.7,1.3,1.6v8.4l0.7,1.3h1.1l0.7-1.3V5.7c0-0.9,0.4-1.3,1.3-1.3s1.3,0.5,1.3,1.3v15.4c0,0.7,0,0.8-0.4,1.4l-0.9,1.6
			c-0.5,0.8-0.7,1-1.6,1H162.2z"/>
		<path fill="#FFFFFF" d="M178.3,5.7c0.2-0.7,0.5-1.4,1.4-1.4c0.9,0,1.2,0.7,1.4,1.4l5.1,18c0.2,0.6-0.5,1.3-1.3,1.3
			c-0.8,0-1.2-0.7-1.4-1.3l-1-3.2h-5.7l-1,3.2c-0.2,0.6-0.6,1.3-1.4,1.3c-0.7,0-1.5-0.7-1.3-1.3L178.3,5.7z M179.7,10.7L179.7,10.7
			l-2.1,7.2h4.2L179.7,10.7z"/>
		<path fill="#FFFFFF" d="M194.9,23.7c0,0.9-0.4,1.3-1.3,1.3s-1.3-0.5-1.3-1.3V4.4h8.9c2.1,0,4.2,1.5,4.2,3.9v1.8
			c0,2.5-2.1,3.8-4.2,3.8h-2.4l6,8.6c0.3,0.4,0.7,0.9,0.7,1.4c0,0.7-0.6,1.2-1.4,1.2c-0.5,0-0.9-0.3-1.2-0.7l-7.3-10.5h-0.6V23.7z
			 M194.9,11.2h5.9c0.7,0,1.9-0.1,1.9-1.1V8.2c0-1.1-1.1-1.2-1.9-1.2h-5.9V11.2z"/>
		<path fill="#FFFFFF" d="M214,7h-1c-0.9,0-1.6-0.3-1.6-1.3c0-1,0.7-1.3,1.5-1.3h4.4c2.1,0,3.1,0.9,4,2.7l2.3,4.7
			c0.5,1.1,0.8,1.9,0.8,3.1c0,1.1-0.3,2-0.8,2.9l-2.4,4.8c-0.9,1.9-2.1,2.5-4.2,2.5h-4.4c-0.7,0-1.3-0.4-1.3-1.3
			c0-1,0.6-1.3,1.3-1.3h1.3V7z M216.7,22.4h0.5c1.1,0,1.4-0.1,1.9-1.1l2.3-4.7c0.3-0.6,0.5-1.1,0.5-1.7c0-0.9-0.3-1.4-0.7-2.2
			L219,8.1C218.4,7,218.2,7,217,7h-0.3V22.4z"/>
	</g>
	<g>
		<path fill="#FFFFFF" d="M1.8,49.3h-1l1.7-7.9H0l0.2-0.9h5.9L6,41.4H3.5L1.8,49.3z"/>
		<path fill="#FFFFFF" d="M9.1,49.3l0.9-4.2c0.1-0.4,0.1-0.6,0.1-0.8c0-0.6-0.3-0.9-0.9-0.9c-0.4,0-0.7,0.1-1,0.4
			c-0.3,0.2-0.6,0.6-0.9,1c-0.3,0.5-0.5,1-0.6,1.6l-0.6,2.9h-1l2-9.4h1c-0.1,0.3-0.1,0.6-0.2,1s-0.1,0.6-0.2,0.9s-0.1,0.7-0.2,1
			c-0.1,0.3-0.2,0.7-0.3,1.1h0.1c0.4-0.5,0.8-0.8,1.1-1.1s0.8-0.3,1.2-0.3c0.5,0,0.9,0.1,1.2,0.4c0.3,0.3,0.4,0.7,0.4,1.2
			c0,0.2,0,0.6-0.1,1c-0.2,0.8-0.4,2.1-0.9,4.1H9.1z"/>
		<path fill="#FFFFFF" d="M14.5,49.5c-0.7,0-1.3-0.2-1.7-0.7c-0.4-0.4-0.6-1-0.6-1.8c0-0.8,0.1-1.5,0.4-2.2c0.3-0.7,0.7-1.2,1.2-1.6
			c0.5-0.4,1-0.6,1.6-0.6c0.6,0,1.1,0.1,1.4,0.4c0.3,0.3,0.5,0.6,0.5,1.1c0,0.7-0.3,1.3-1,1.7c-0.7,0.4-1.6,0.6-2.9,0.6h-0.2l0,0.5
			c0,0.5,0.1,0.9,0.4,1.2c0.2,0.3,0.6,0.4,1.1,0.4c0.3,0,0.5,0,0.8-0.1s0.6-0.2,1-0.4V49c-0.4,0.2-0.7,0.3-1,0.4
			C15.2,49.4,14.9,49.5,14.5,49.5z M15.4,43.5c-0.4,0-0.8,0.2-1.2,0.6s-0.6,0.9-0.8,1.6h0.1c0.9,0,1.6-0.1,2.1-0.4s0.7-0.6,0.7-1
			c0-0.2-0.1-0.4-0.2-0.5C15.9,43.5,15.7,43.5,15.4,43.5z"/>
		<path fill="#FFFFFF" d="M23.2,49.3h-1l1.7-7.9h-2.4l0.2-0.9h5.9l-0.2,0.9h-2.5L23.2,49.3z"/>
		<path fill="#FFFFFF" d="M29,49.5c-0.7,0-1.3-0.2-1.7-0.7c-0.4-0.4-0.6-1-0.6-1.8c0-0.8,0.1-1.5,0.4-2.2c0.3-0.7,0.7-1.2,1.2-1.6
			c0.5-0.4,1-0.6,1.6-0.6c0.6,0,1.1,0.1,1.4,0.4c0.3,0.3,0.5,0.6,0.5,1.1c0,0.7-0.3,1.3-1,1.7c-0.7,0.4-1.6,0.6-2.9,0.6h-0.2l0,0.5
			c0,0.5,0.1,0.9,0.4,1.2c0.2,0.3,0.6,0.4,1.1,0.4c0.3,0,0.5,0,0.8-0.1s0.6-0.2,1-0.4V49c-0.4,0.2-0.7,0.3-1,0.4
			C29.7,49.4,29.4,49.5,29,49.5z M29.9,43.5c-0.4,0-0.8,0.2-1.2,0.6s-0.6,0.9-0.8,1.6H28c0.9,0,1.6-0.1,2.1-0.4s0.7-0.6,0.7-1
			c0-0.2-0.1-0.4-0.2-0.5C30.4,43.5,30.2,43.5,29.9,43.5z"/>
		<path fill="#FFFFFF" d="M34.9,49.5c-0.8,0-1.4-0.2-1.8-0.6c-0.4-0.4-0.6-1-0.6-1.8c0-0.8,0.1-1.5,0.4-2.2c0.3-0.7,0.7-1.2,1.2-1.6
			c0.5-0.4,1.1-0.6,1.8-0.6c0.6,0,1.1,0.1,1.6,0.3l-0.3,0.9c-0.5-0.2-0.9-0.3-1.3-0.3c-0.5,0-0.9,0.2-1.2,0.5
			c-0.4,0.3-0.7,0.7-0.9,1.3c-0.2,0.5-0.3,1.1-0.3,1.8c0,0.5,0.1,0.9,0.4,1.2c0.3,0.3,0.6,0.4,1.1,0.4c0.3,0,0.6,0,0.8-0.1
			c0.3-0.1,0.5-0.2,0.8-0.3v0.9C36.1,49.3,35.5,49.5,34.9,49.5z"/>
		<path fill="#FFFFFF" d="M41.5,49.3l0.9-4.2c0.1-0.4,0.1-0.6,0.1-0.8c0-0.6-0.3-0.9-0.9-0.9c-0.4,0-0.7,0.1-1,0.4
			c-0.3,0.2-0.6,0.6-0.9,1c-0.3,0.5-0.5,1-0.6,1.6l-0.6,2.9h-1l2-9.4h1c-0.1,0.3-0.1,0.6-0.2,1s-0.1,0.6-0.2,0.9s-0.1,0.7-0.2,1
			c-0.1,0.3-0.2,0.7-0.3,1.1h0.1c0.4-0.5,0.8-0.8,1.1-1.1s0.8-0.3,1.2-0.3c0.5,0,0.9,0.1,1.2,0.4c0.3,0.3,0.4,0.7,0.4,1.2
			c0,0.2,0,0.6-0.1,1c-0.2,0.8-0.4,2.1-0.9,4.1H41.5z"/>
		<path fill="#FFFFFF" d="M48.3,49.3l0.9-4.2c0.1-0.4,0.1-0.7,0.1-0.9c0-0.3-0.1-0.5-0.2-0.6c-0.1-0.2-0.4-0.2-0.7-0.2
			c-0.4,0-0.7,0.1-1,0.4c-0.3,0.2-0.6,0.6-0.9,1c-0.3,0.4-0.5,1-0.6,1.6l-0.6,2.9h-1l1.4-6.6h0.8L46.4,44h0.1c0.4-0.5,0.8-0.8,1.1-1
			s0.7-0.3,1.1-0.3c0.5,0,0.9,0.1,1.2,0.4c0.3,0.3,0.4,0.7,0.4,1.2c0,0.3,0,0.7-0.1,1.1l-0.9,4.1H48.3z"/>
		<path fill="#FFFFFF" d="M54.6,42.7c0.8,0,1.4,0.2,1.8,0.7c0.4,0.5,0.7,1.1,0.7,1.9c0,0.8-0.1,1.5-0.4,2.1s-0.7,1.2-1.2,1.6
			s-1.1,0.5-1.7,0.5c-0.8,0-1.4-0.2-1.8-0.7s-0.7-1.1-0.7-1.9c0-0.8,0.1-1.5,0.4-2.2c0.3-0.7,0.7-1.2,1.2-1.6
			C53.5,42.8,54,42.7,54.6,42.7z M56.1,45.1c0-0.5-0.1-0.8-0.4-1.1c-0.3-0.3-0.6-0.4-1-0.4c-0.4,0-0.8,0.1-1.2,0.4s-0.6,0.7-0.8,1.2
			c-0.2,0.5-0.3,1.1-0.3,1.8c0,0.5,0.1,0.9,0.4,1.2c0.3,0.3,0.6,0.4,1.1,0.4c0.4,0,0.8-0.1,1.1-0.4c0.3-0.3,0.6-0.7,0.8-1.3
			S56.1,45.8,56.1,45.1z"/>
		<path fill="#FFFFFF" d="M58.8,49.3h-1l2-9.4h1L58.8,49.3z"/>
		<path fill="#FFFFFF" d="M64.1,42.7c0.8,0,1.4,0.2,1.8,0.7c0.4,0.5,0.7,1.1,0.7,1.9c0,0.8-0.1,1.5-0.4,2.1s-0.7,1.2-1.2,1.6
			s-1.1,0.5-1.7,0.5c-0.8,0-1.4-0.2-1.8-0.7s-0.7-1.1-0.7-1.9c0-0.8,0.1-1.5,0.4-2.2c0.3-0.7,0.7-1.2,1.2-1.6
			C62.9,42.8,63.5,42.7,64.1,42.7z M65.5,45.1c0-0.5-0.1-0.8-0.4-1.1c-0.3-0.3-0.6-0.4-1-0.4c-0.4,0-0.8,0.1-1.2,0.4
			s-0.6,0.7-0.8,1.2c-0.2,0.5-0.3,1.1-0.3,1.8c0,0.5,0.1,0.9,0.4,1.2c0.3,0.3,0.6,0.4,1.1,0.4c0.4,0,0.8-0.1,1.1-0.4
			c0.3-0.3,0.6-0.7,0.8-1.3S65.5,45.8,65.5,45.1z"/>
		<path fill="#FFFFFF" d="M73.5,42.7l-0.2,0.6l-1.3,0.1c0.2,0.2,0.2,0.6,0.2,1c0,0.8-0.2,1.4-0.7,1.8c-0.5,0.5-1.1,0.7-1.9,0.7
			c-0.2,0-0.4,0-0.5,0c-0.6,0.2-0.8,0.5-0.8,0.8c0,0.2,0.1,0.3,0.2,0.3c0.1,0.1,0.3,0.1,0.6,0.1l0.7,0.1c0.7,0.1,1.3,0.3,1.6,0.5
			c0.3,0.3,0.5,0.7,0.5,1.2c0,0.7-0.3,1.3-0.9,1.7s-1.4,0.6-2.5,0.6c-0.8,0-1.4-0.1-1.8-0.4c-0.4-0.3-0.7-0.7-0.7-1.3
			c0-0.4,0.1-0.8,0.4-1.1c0.3-0.3,0.8-0.6,1.4-0.8c-0.3-0.2-0.5-0.4-0.5-0.7c0-0.3,0.1-0.5,0.3-0.7s0.5-0.4,0.9-0.6
			c-0.3-0.1-0.5-0.3-0.6-0.6c-0.2-0.2-0.2-0.5-0.2-0.9c0-0.8,0.2-1.4,0.7-1.9c0.5-0.5,1.1-0.7,1.8-0.7c0.3,0,0.6,0,0.9,0.1H73.5z
			 M67.1,50.5c0,0.3,0.1,0.6,0.4,0.7c0.3,0.2,0.6,0.3,1.2,0.3c0.7,0,1.3-0.1,1.7-0.4c0.4-0.3,0.6-0.6,0.6-1.1c0-0.2-0.1-0.4-0.3-0.6
			c-0.2-0.1-0.6-0.2-1.1-0.3l-1-0.1c-0.5,0.1-0.9,0.3-1.1,0.5C67.2,49.9,67.1,50.2,67.1,50.5z M68.7,45.2c0,0.3,0.1,0.6,0.3,0.8
			c0.2,0.2,0.4,0.3,0.8,0.3c0.3,0,0.6-0.1,0.8-0.3s0.4-0.4,0.5-0.7c0.1-0.3,0.2-0.6,0.2-1c0-0.3-0.1-0.6-0.3-0.8
			c-0.2-0.2-0.4-0.3-0.8-0.3c-0.3,0-0.6,0.1-0.8,0.2s-0.4,0.4-0.5,0.7C68.8,44.6,68.7,44.9,68.7,45.2z"/>
		<path fill="#FFFFFF" d="M74.1,49.3h-1l1.4-6.6h1L74.1,49.3z M74.8,41c0-0.2,0.1-0.4,0.2-0.6c0.1-0.1,0.3-0.2,0.5-0.2
			c0.4,0,0.5,0.2,0.5,0.5c0,0.2-0.1,0.4-0.2,0.6c-0.1,0.2-0.3,0.2-0.5,0.2c-0.2,0-0.3,0-0.4-0.1S74.8,41.2,74.8,41z"/>
		<path fill="#FFFFFF" d="M78.5,49.5c-0.7,0-1.3-0.2-1.7-0.7c-0.4-0.4-0.6-1-0.6-1.8c0-0.8,0.1-1.5,0.4-2.2c0.3-0.7,0.7-1.2,1.2-1.6
			c0.5-0.4,1-0.6,1.6-0.6c0.6,0,1.1,0.1,1.4,0.4c0.3,0.3,0.5,0.6,0.5,1.1c0,0.7-0.3,1.3-1,1.7c-0.7,0.4-1.6,0.6-2.9,0.6h-0.2l0,0.5
			c0,0.5,0.1,0.9,0.4,1.2c0.2,0.3,0.6,0.4,1.1,0.4c0.3,0,0.5,0,0.8-0.1s0.6-0.2,1-0.4V49c-0.4,0.2-0.7,0.3-1,0.4
			C79.2,49.4,78.9,49.5,78.5,49.5z M79.4,43.5c-0.4,0-0.8,0.2-1.2,0.6s-0.6,0.9-0.8,1.6h0.1c0.9,0,1.6-0.1,2.1-0.4s0.7-0.6,0.7-1
			c0-0.2-0.1-0.4-0.2-0.5C79.9,43.5,79.7,43.5,79.4,43.5z"/>
		<path fill="#FFFFFF" d="M85.8,47.5c0,0.6-0.2,1.1-0.7,1.5c-0.4,0.4-1.1,0.5-1.9,0.5c-0.7,0-1.3-0.1-1.8-0.4v-1
			c0.3,0.2,0.6,0.3,0.9,0.4s0.6,0.1,0.9,0.1c0.5,0,0.9-0.1,1.1-0.3s0.4-0.5,0.4-0.8c0-0.2-0.1-0.4-0.2-0.6c-0.1-0.2-0.4-0.4-0.9-0.6
			c-0.5-0.3-0.9-0.6-1.1-0.9c-0.2-0.3-0.3-0.6-0.3-1c0-0.6,0.2-1,0.6-1.3s0.9-0.5,1.6-0.5c0.7,0,1.4,0.1,2,0.4l-0.3,0.8l-0.3-0.2
			c-0.4-0.2-0.8-0.3-1.3-0.3c-0.4,0-0.7,0.1-0.9,0.3s-0.3,0.4-0.3,0.7c0,0.2,0.1,0.4,0.2,0.6c0.1,0.2,0.4,0.4,0.9,0.6
			c0.4,0.2,0.7,0.4,0.9,0.6c0.2,0.2,0.3,0.4,0.4,0.6C85.7,47,85.8,47.2,85.8,47.5z"/>
		<path fill="#FFFFFF" d="M89.6,47.3c0-0.6,0.2-1.1,0.5-1.6c0.4-0.4,1-0.9,1.8-1.3c-0.4-0.7-0.6-1.3-0.6-1.9c0-0.7,0.2-1.2,0.6-1.6
			c0.4-0.4,1-0.6,1.7-0.6c0.6,0,1.1,0.2,1.4,0.5c0.4,0.3,0.5,0.7,0.5,1.3c0,0.3-0.1,0.6-0.2,0.8s-0.3,0.5-0.5,0.7
			c-0.2,0.2-0.5,0.4-0.8,0.5c-0.3,0.2-0.6,0.3-0.9,0.5l1.7,2.3c0.5-0.4,0.9-1,1.2-1.8h1c-0.4,0.9-1,1.8-1.7,2.5l1.2,1.6h-1.2l-0.7-1
			c-0.5,0.4-0.9,0.7-1.4,0.9c-0.4,0.2-0.9,0.3-1.5,0.3c-0.7,0-1.2-0.2-1.6-0.6S89.6,48,89.6,47.3z M92.1,48.6c0.4,0,0.7-0.1,1-0.2
			c0.3-0.1,0.7-0.4,1.2-0.7l-1.8-2.6c-0.5,0.3-0.9,0.5-1.1,0.7c-0.2,0.2-0.4,0.4-0.5,0.6c-0.1,0.2-0.2,0.5-0.2,0.8
			c0,0.4,0.1,0.8,0.4,1C91.3,48.5,91.6,48.6,92.1,48.6z M93.7,41.2c-0.4,0-0.8,0.1-1,0.4c-0.2,0.2-0.4,0.6-0.4,1
			c0,0.5,0.2,1,0.5,1.4c0.6-0.3,0.9-0.5,1.2-0.7c0.2-0.2,0.4-0.3,0.5-0.5c0.1-0.2,0.2-0.4,0.2-0.6c0-0.3-0.1-0.6-0.3-0.7
			C94.3,41.3,94,41.2,93.7,41.2z"/>
		<path fill="#FFFFFF" d="M105.8,41.3c-0.7,0-1.3,0.2-1.9,0.6c-0.6,0.4-1,1-1.3,1.7c-0.3,0.8-0.5,1.6-0.5,2.5c0,0.8,0.2,1.4,0.6,1.8
			s0.9,0.7,1.6,0.7c0.6,0,1.2-0.1,1.9-0.3v0.9c-0.3,0.1-0.7,0.2-1,0.3c-0.3,0.1-0.7,0.1-1.1,0.1c-1,0-1.7-0.3-2.3-0.9
			s-0.8-1.4-0.8-2.5c0-1,0.2-2,0.6-2.9c0.4-0.9,1-1.6,1.7-2.1c0.7-0.5,1.5-0.7,2.4-0.7c0.8,0,1.5,0.2,2.1,0.5l-0.4,0.9
			C106.9,41.5,106.4,41.3,105.8,41.3z"/>
		<path fill="#FFFFFF" d="M110.9,42.7c0.8,0,1.4,0.2,1.8,0.7c0.4,0.5,0.7,1.1,0.7,1.9c0,0.8-0.1,1.5-0.4,2.1s-0.7,1.2-1.2,1.6
			s-1.1,0.5-1.7,0.5c-0.8,0-1.4-0.2-1.8-0.7s-0.7-1.1-0.7-1.9c0-0.8,0.1-1.5,0.4-2.2c0.3-0.7,0.7-1.2,1.2-1.6
			C109.7,42.8,110.3,42.7,110.9,42.7z M112.3,45.1c0-0.5-0.1-0.8-0.4-1.1c-0.3-0.3-0.6-0.4-1-0.4c-0.4,0-0.8,0.1-1.2,0.4
			s-0.6,0.7-0.8,1.2c-0.2,0.5-0.3,1.1-0.3,1.8c0,0.5,0.1,0.9,0.4,1.2c0.3,0.3,0.6,0.4,1.1,0.4c0.4,0,0.8-0.1,1.1-0.4
			c0.3-0.3,0.6-0.7,0.8-1.3S112.3,45.8,112.3,45.1z"/>
		<path fill="#FFFFFF" d="M117.8,49.3l0.9-4.2c0.1-0.4,0.1-0.6,0.1-0.8c0-0.3-0.1-0.5-0.2-0.7c-0.1-0.2-0.3-0.2-0.6-0.2
			c-0.3,0-0.7,0.1-1,0.4c-0.3,0.2-0.6,0.6-0.8,1c-0.2,0.4-0.4,1-0.6,1.6l-0.6,2.9h-1l1.4-6.6h0.8l-0.1,1.2h0.1c0.3-0.5,0.7-0.8,1-1
			c0.3-0.2,0.7-0.3,1.1-0.3c0.5,0,0.8,0.1,1,0.4c0.2,0.3,0.4,0.6,0.4,1.1h0c0.3-0.5,0.7-0.9,1.1-1.1c0.4-0.2,0.8-0.4,1.2-0.4
			c0.5,0,0.9,0.1,1.2,0.4c0.3,0.3,0.4,0.7,0.4,1.2c0,0.3,0,0.6-0.1,1.1l-0.9,4.1h-1l0.9-4.2c0.1-0.4,0.1-0.7,0.1-0.9
			c0-0.2-0.1-0.4-0.2-0.6c-0.1-0.2-0.4-0.2-0.7-0.2c-0.3,0-0.6,0.1-1,0.3s-0.6,0.6-0.8,1c-0.2,0.4-0.4,0.9-0.5,1.5l-0.6,3H117.8z"/>
		<path fill="#FFFFFF" d="M127.4,49.5c-0.4,0-0.7-0.1-1-0.3c-0.3-0.2-0.5-0.5-0.7-0.8h-0.1l0,0.2c0,0.1,0,0.2-0.1,0.4
			c0,0.2-0.3,1.3-0.7,3.3h-1l2-9.6h0.8l-0.2,1.3h0c0.7-0.9,1.5-1.4,2.2-1.4c0.6,0,1,0.2,1.3,0.6c0.3,0.4,0.5,0.9,0.5,1.7
			c0,0.9-0.1,1.6-0.4,2.3c-0.3,0.7-0.7,1.3-1.2,1.7C128.6,49.3,128,49.5,127.4,49.5z M128.5,43.5c-0.4,0-0.8,0.2-1.2,0.6
			c-0.4,0.4-0.7,0.9-1,1.4c-0.2,0.6-0.4,1.2-0.4,1.8c0,0.4,0.1,0.8,0.3,1c0.2,0.2,0.5,0.4,1,0.4c0.4,0,0.8-0.2,1.1-0.5
			c0.3-0.3,0.6-0.8,0.8-1.4c0.2-0.6,0.3-1.2,0.3-1.9C129.6,43.9,129.2,43.5,128.5,43.5z"/>
		<path fill="#FFFFFF" d="M134.8,42.6c0.4,0,0.7,0.1,1,0.3c0.3,0.2,0.5,0.5,0.7,0.9h0.1l0.4-1h0.8l-1.4,6.6h-0.8l0.2-1.3h0
			c-0.7,0.9-1.5,1.4-2.3,1.4c-0.6,0-1-0.2-1.3-0.6c-0.3-0.4-0.5-0.9-0.5-1.6c0-0.8,0.1-1.6,0.4-2.3c0.3-0.7,0.7-1.3,1.2-1.7
			S134.2,42.6,134.8,42.6z M133.6,48.6c0.4,0,0.8-0.2,1.2-0.6c0.4-0.4,0.7-0.9,0.9-1.5c0.2-0.6,0.4-1.2,0.4-1.8c0-0.4-0.1-0.7-0.3-1
			c-0.2-0.2-0.5-0.4-0.9-0.4c-0.4,0-0.8,0.2-1.2,0.5c-0.4,0.3-0.6,0.8-0.8,1.4s-0.3,1.2-0.3,1.9c0,0.5,0.1,0.8,0.3,1
			C133,48.5,133.3,48.6,133.6,48.6z"/>
		<path fill="#FFFFFF" d="M142,49.3l0.9-4.2c0.1-0.4,0.1-0.7,0.1-0.9c0-0.3-0.1-0.5-0.2-0.6c-0.1-0.2-0.4-0.2-0.7-0.2
			c-0.4,0-0.7,0.1-1,0.4c-0.3,0.2-0.6,0.6-0.9,1c-0.3,0.4-0.5,1-0.6,1.6l-0.6,2.9h-1l1.4-6.6h0.8l-0.1,1.2h0.1
			c0.4-0.5,0.8-0.8,1.1-1c0.4-0.2,0.7-0.3,1.1-0.3c0.5,0,0.9,0.1,1.2,0.4s0.4,0.7,0.4,1.2c0,0.3,0,0.7-0.1,1.1l-0.9,4.1H142z"/>
		<path fill="#FFFFFF" d="M145.8,49.3h-1l1.4-6.6h1L145.8,49.3z M146.5,41c0-0.2,0.1-0.4,0.2-0.6s0.3-0.2,0.5-0.2
			c0.4,0,0.5,0.2,0.5,0.5c0,0.2-0.1,0.4-0.2,0.6c-0.1,0.2-0.3,0.2-0.5,0.2c-0.2,0-0.3,0-0.4-0.1S146.5,41.2,146.5,41z"/>
		<path fill="#FFFFFF" d="M150.2,49.5c-0.7,0-1.3-0.2-1.7-0.7c-0.4-0.4-0.6-1-0.6-1.8c0-0.8,0.2-1.5,0.4-2.2
			c0.3-0.7,0.7-1.2,1.2-1.6c0.5-0.4,1-0.6,1.6-0.6c0.6,0,1.1,0.1,1.4,0.4c0.3,0.3,0.5,0.6,0.5,1.1c0,0.7-0.3,1.3-1,1.7
			c-0.7,0.4-1.6,0.6-2.9,0.6h-0.2l0,0.5c0,0.5,0.1,0.9,0.4,1.2c0.2,0.3,0.6,0.4,1.1,0.4c0.3,0,0.5,0,0.8-0.1s0.6-0.2,1-0.4V49
			c-0.4,0.2-0.7,0.3-1,0.4C150.9,49.4,150.6,49.5,150.2,49.5z M151.1,43.5c-0.4,0-0.8,0.2-1.2,0.6s-0.6,0.9-0.8,1.6h0.1
			c0.9,0,1.6-0.1,2.1-0.4s0.7-0.6,0.7-1c0-0.2-0.1-0.4-0.2-0.5C151.6,43.5,151.4,43.5,151.1,43.5z"/>
		<path fill="#FFFFFF" d="M157.5,47.5c0,0.6-0.2,1.1-0.7,1.5c-0.4,0.4-1.1,0.5-1.9,0.5c-0.7,0-1.3-0.1-1.8-0.4v-1
			c0.3,0.2,0.6,0.3,0.9,0.4c0.3,0.1,0.6,0.1,0.9,0.1c0.5,0,0.9-0.1,1.1-0.3c0.3-0.2,0.4-0.5,0.4-0.8c0-0.2-0.1-0.4-0.2-0.6
			s-0.4-0.4-0.9-0.6c-0.5-0.3-0.9-0.6-1.1-0.9c-0.2-0.3-0.3-0.6-0.3-1c0-0.6,0.2-1,0.6-1.3s0.9-0.5,1.6-0.5c0.7,0,1.4,0.1,2,0.4
			l-0.3,0.8l-0.3-0.2c-0.4-0.2-0.8-0.3-1.3-0.3c-0.4,0-0.7,0.1-0.9,0.3c-0.2,0.2-0.3,0.4-0.3,0.7c0,0.2,0.1,0.4,0.2,0.6
			c0.1,0.2,0.4,0.4,0.9,0.6c0.4,0.2,0.7,0.4,0.9,0.6c0.2,0.2,0.3,0.4,0.4,0.6C157.4,47,157.5,47.2,157.5,47.5z"/>
		<path fill="#FFFFFF" d="M166.4,46.8c0,0.8-0.3,1.5-0.8,2c-0.6,0.5-1.4,0.7-2.4,0.7c-0.4,0-0.8,0-1.1-0.1c-0.3-0.1-0.6-0.2-0.9-0.3
			v-1c0.7,0.3,1.3,0.5,2.1,0.5c0.7,0,1.2-0.2,1.6-0.5s0.6-0.7,0.6-1.3c0-0.3-0.1-0.6-0.3-0.8s-0.6-0.5-1.2-0.8c-0.6-0.3-1-0.7-1.3-1
			s-0.4-0.7-0.4-1.2c0-0.8,0.3-1.4,0.8-1.8c0.5-0.5,1.2-0.7,2.1-0.7c0.4,0,0.8,0,1.1,0.1s0.7,0.2,1.1,0.4l-0.4,0.9
			c-0.3-0.2-0.6-0.3-0.9-0.4c-0.3-0.1-0.6-0.1-0.9-0.1c-0.5,0-1,0.1-1.3,0.4c-0.3,0.3-0.5,0.7-0.5,1.1c0,0.2,0,0.4,0.1,0.6
			c0.1,0.2,0.2,0.3,0.3,0.4s0.4,0.3,0.9,0.6c0.6,0.4,1,0.6,1.2,0.8s0.4,0.4,0.5,0.7C166.4,46.2,166.4,46.5,166.4,46.8z"/>
		<path fill="#FFFFFF" d="M171.2,49.3l0.9-4.2c0.1-0.4,0.1-0.6,0.1-0.8c0-0.6-0.3-0.9-0.9-0.9c-0.4,0-0.7,0.1-1,0.4
			c-0.3,0.2-0.6,0.6-0.9,1s-0.5,1-0.6,1.6l-0.6,2.9h-1l2-9.4h1c-0.1,0.3-0.1,0.6-0.2,1s-0.1,0.6-0.2,0.9s-0.1,0.7-0.2,1
			c-0.1,0.3-0.2,0.7-0.3,1.1h0.1c0.4-0.5,0.8-0.8,1.1-1.1c0.4-0.2,0.8-0.3,1.2-0.3c0.5,0,0.9,0.1,1.2,0.4c0.3,0.3,0.4,0.7,0.4,1.2
			c0,0.2,0,0.6-0.1,1c-0.2,0.8-0.4,2.1-0.9,4.1H171.2z"/>
		<path fill="#FFFFFF" d="M177.5,42.6c0.4,0,0.7,0.1,1,0.3c0.3,0.2,0.5,0.5,0.7,0.9h0.1l0.4-1h0.8l-1.4,6.6h-0.8l0.2-1.3h0
			c-0.7,0.9-1.5,1.4-2.3,1.4c-0.6,0-1-0.2-1.3-0.6c-0.3-0.4-0.5-0.9-0.5-1.6c0-0.8,0.1-1.6,0.4-2.3c0.3-0.7,0.7-1.3,1.2-1.7
			S176.9,42.6,177.5,42.6z M176.4,48.6c0.4,0,0.8-0.2,1.2-0.6c0.4-0.4,0.7-0.9,0.9-1.5c0.2-0.6,0.4-1.2,0.4-1.8c0-0.4-0.1-0.7-0.3-1
			c-0.2-0.2-0.5-0.4-0.9-0.4c-0.4,0-0.8,0.2-1.2,0.5c-0.4,0.3-0.6,0.8-0.8,1.4s-0.3,1.2-0.3,1.9c0,0.5,0.1,0.8,0.3,1
			C175.8,48.5,176,48.6,176.4,48.6z"/>
		<path fill="#FFFFFF" d="M183.6,49.5c-0.4,0-0.7-0.1-1-0.3s-0.5-0.5-0.7-0.8h-0.1l0,0.2c0,0.1,0,0.2-0.1,0.4c0,0.2-0.3,1.3-0.7,3.3
			h-1l2-9.6h0.8l-0.2,1.3h0c0.7-0.9,1.5-1.4,2.2-1.4c0.6,0,1,0.2,1.3,0.6c0.3,0.4,0.5,0.9,0.5,1.7c0,0.9-0.1,1.6-0.4,2.3
			c-0.3,0.7-0.7,1.3-1.2,1.7C184.8,49.3,184.2,49.5,183.6,49.5z M184.7,43.5c-0.4,0-0.8,0.2-1.2,0.6c-0.4,0.4-0.7,0.9-1,1.4
			c-0.2,0.6-0.4,1.2-0.4,1.8c0,0.4,0.1,0.8,0.3,1c0.2,0.2,0.5,0.4,1,0.4c0.4,0,0.8-0.2,1.1-0.5c0.3-0.3,0.6-0.8,0.8-1.4
			c0.2-0.6,0.3-1.2,0.3-1.9C185.8,43.9,185.5,43.5,184.7,43.5z"/>
		<path fill="#FFFFFF" d="M188.5,49.3h-1l1.4-6.6h1L188.5,49.3z M189.2,41c0-0.2,0.1-0.4,0.2-0.6s0.3-0.2,0.5-0.2
			c0.4,0,0.5,0.2,0.5,0.5c0,0.2-0.1,0.4-0.2,0.6c-0.1,0.2-0.3,0.2-0.5,0.2c-0.2,0-0.3,0-0.4-0.1S189.2,41.2,189.2,41z"/>
		<path fill="#FFFFFF" d="M194.4,49.3l0.9-4.2c0.1-0.4,0.1-0.7,0.1-0.9c0-0.3-0.1-0.5-0.2-0.6c-0.1-0.2-0.4-0.2-0.7-0.2
			c-0.4,0-0.7,0.1-1,0.4c-0.3,0.2-0.6,0.6-0.9,1c-0.3,0.4-0.5,1-0.6,1.6l-0.6,2.9h-1l1.4-6.6h0.8l-0.1,1.2h0.1
			c0.4-0.5,0.8-0.8,1.1-1c0.4-0.2,0.7-0.3,1.1-0.3c0.5,0,0.9,0.1,1.2,0.4s0.4,0.7,0.4,1.2c0,0.3,0,0.7-0.1,1.1l-0.9,4.1H194.4z"/>
		<path fill="#FFFFFF" d="M203.4,42.7l-0.2,0.6l-1.3,0.1c0.2,0.2,0.2,0.6,0.2,1c0,0.8-0.2,1.4-0.7,1.8c-0.5,0.5-1.1,0.7-1.9,0.7
			c-0.2,0-0.4,0-0.5,0c-0.6,0.2-0.8,0.5-0.8,0.8c0,0.2,0.1,0.3,0.2,0.3c0.1,0.1,0.3,0.1,0.6,0.1l0.7,0.1c0.7,0.1,1.3,0.3,1.6,0.5
			c0.3,0.3,0.5,0.7,0.5,1.2c0,0.7-0.3,1.3-0.9,1.7c-0.6,0.4-1.4,0.6-2.5,0.6c-0.8,0-1.4-0.1-1.8-0.4c-0.4-0.3-0.7-0.7-0.7-1.3
			c0-0.4,0.1-0.8,0.4-1.1c0.3-0.3,0.8-0.6,1.4-0.8c-0.3-0.2-0.5-0.4-0.5-0.7c0-0.3,0.1-0.5,0.3-0.7s0.5-0.4,0.9-0.6
			c-0.3-0.1-0.5-0.3-0.6-0.6c-0.2-0.2-0.2-0.5-0.2-0.9c0-0.8,0.2-1.4,0.7-1.9c0.5-0.5,1.1-0.7,1.8-0.7c0.3,0,0.6,0,0.9,0.1H203.4z
			 M197,50.5c0,0.3,0.1,0.6,0.4,0.7c0.3,0.2,0.6,0.3,1.2,0.3c0.7,0,1.3-0.1,1.7-0.4s0.6-0.6,0.6-1.1c0-0.2-0.1-0.4-0.3-0.6
			s-0.6-0.2-1.1-0.3l-1-0.1c-0.5,0.1-0.9,0.3-1.1,0.5C197.1,49.9,197,50.2,197,50.5z M198.7,45.2c0,0.3,0.1,0.6,0.3,0.8
			c0.2,0.2,0.4,0.3,0.8,0.3c0.3,0,0.6-0.1,0.8-0.3s0.4-0.4,0.5-0.7c0.1-0.3,0.2-0.6,0.2-1c0-0.3-0.1-0.6-0.3-0.8
			c-0.2-0.2-0.4-0.3-0.8-0.3c-0.3,0-0.6,0.1-0.8,0.2s-0.4,0.4-0.5,0.7C198.8,44.6,198.7,44.9,198.7,45.2z"/>
		<path fill="#FFFFFF" d="M209.5,42.7c0.8,0,1.4,0.2,1.8,0.7c0.4,0.5,0.7,1.1,0.7,1.9c0,0.8-0.1,1.5-0.4,2.1
			c-0.3,0.7-0.7,1.2-1.2,1.6c-0.5,0.4-1.1,0.5-1.7,0.5c-0.8,0-1.4-0.2-1.8-0.7c-0.4-0.5-0.7-1.1-0.7-1.9c0-0.8,0.1-1.5,0.4-2.2
			s0.7-1.2,1.2-1.6C208.3,42.8,208.9,42.7,209.5,42.7z M210.9,45.1c0-0.5-0.1-0.8-0.4-1.1c-0.3-0.3-0.6-0.4-1-0.4
			c-0.4,0-0.8,0.1-1.2,0.4c-0.3,0.3-0.6,0.7-0.8,1.2s-0.3,1.1-0.3,1.8c0,0.5,0.1,0.9,0.4,1.2c0.3,0.3,0.6,0.4,1.1,0.4
			c0.4,0,0.8-0.1,1.1-0.4c0.3-0.3,0.6-0.7,0.8-1.3S210.9,45.8,210.9,45.1z"/>
		<path fill="#FFFFFF" d="M214.9,42.7l-0.9,4.2c-0.1,0.4-0.1,0.6-0.1,0.8c0,0.6,0.3,0.9,0.9,0.9c0.4,0,0.7-0.1,1-0.4
			c0.3-0.2,0.6-0.6,0.9-1c0.3-0.5,0.5-1,0.6-1.6l0.6-2.9h1l-1.4,6.6h-0.8l0.1-1.2h-0.1c-0.4,0.5-0.8,0.9-1.1,1.1
			c-0.4,0.2-0.7,0.3-1.1,0.3c-0.5,0-0.9-0.1-1.2-0.4c-0.3-0.3-0.4-0.7-0.4-1.2c0-0.2,0-0.6,0.1-1l0.9-4.1H214.9z"/>
		<path fill="#FFFFFF" d="M223.6,42.6c0.3,0,0.5,0,0.7,0.1l-0.2,0.9c-0.2-0.1-0.4-0.1-0.6-0.1c-0.4,0-0.7,0.1-1,0.4
			c-0.3,0.2-0.6,0.6-0.8,1s-0.4,0.9-0.5,1.4l-0.6,3h-1l1.4-6.6h0.8l-0.1,1.2h0.1c0.3-0.4,0.5-0.7,0.7-0.8s0.4-0.3,0.6-0.4
			C223.1,42.7,223.3,42.6,223.6,42.6z"/>
		<path fill="#FFFFFF" d="M228.1,49.3h-1l1.9-8.8h4.4l-0.2,0.9h-3.4l-0.7,3.2h3.2l-0.2,0.9h-3.2L228.1,49.3z"/>
		<path fill="#FFFFFF" d="M234.8,42.7l-0.9,4.2c-0.1,0.4-0.1,0.6-0.1,0.8c0,0.6,0.3,0.9,0.9,0.9c0.4,0,0.7-0.1,1-0.4
			c0.3-0.2,0.6-0.6,0.9-1c0.3-0.5,0.5-1,0.6-1.6l0.6-2.9h1l-1.4,6.6h-0.8l0.1-1.2h-0.1c-0.4,0.5-0.8,0.9-1.1,1.1
			c-0.4,0.2-0.7,0.3-1.1,0.3c-0.5,0-0.9-0.1-1.2-0.4c-0.3-0.3-0.4-0.7-0.4-1.2c0-0.2,0-0.6,0.1-1l0.9-4.1H234.8z"/>
		<path fill="#FFFFFF" d="M241.3,48.6c0.2,0,0.5-0.1,0.9-0.2v0.8c-0.1,0.1-0.3,0.1-0.5,0.1c-0.2,0-0.4,0.1-0.5,0.1
			c-0.5,0-0.9-0.1-1.2-0.4c-0.3-0.2-0.4-0.6-0.4-1.1c0-0.3,0-0.6,0.1-0.9l0.8-3.6h-1l0.1-0.4l1.1-0.5l0.8-1.4h0.6l-0.3,1.5h1.7
			l-0.2,0.8h-1.6l-0.8,3.6c-0.1,0.4-0.1,0.6-0.1,0.8c0,0.2,0.1,0.4,0.2,0.5S241,48.6,241.3,48.6z"/>
		<path fill="#FFFFFF" d="M245.3,42.7l-0.9,4.2c-0.1,0.4-0.1,0.6-0.1,0.8c0,0.6,0.3,0.9,0.9,0.9c0.4,0,0.7-0.1,1-0.4
			c0.3-0.2,0.6-0.6,0.9-1c0.3-0.5,0.5-1,0.6-1.6l0.6-2.9h1l-1.4,6.6h-0.8l0.1-1.2h-0.1c-0.4,0.5-0.8,0.9-1.1,1.1
			c-0.4,0.2-0.7,0.3-1.1,0.3c-0.5,0-0.9-0.1-1.2-0.4c-0.3-0.3-0.4-0.7-0.4-1.2c0-0.2,0-0.6,0.1-1l0.9-4.1H245.3z"/>
		<path fill="#FFFFFF" d="M253.9,42.6c0.3,0,0.5,0,0.7,0.1l-0.2,0.9c-0.2-0.1-0.4-0.1-0.6-0.1c-0.4,0-0.7,0.1-1,0.4
			c-0.3,0.2-0.6,0.6-0.8,1s-0.4,0.9-0.5,1.4l-0.6,3h-1l1.4-6.6h0.8l-0.1,1.2h0.1c0.3-0.4,0.5-0.7,0.7-0.8c0.2-0.2,0.4-0.3,0.6-0.4
			C253.4,42.7,253.7,42.6,253.9,42.6z"/>
		<path fill="#FFFFFF" d="M256.9,49.5c-0.7,0-1.3-0.2-1.7-0.7c-0.4-0.4-0.6-1-0.6-1.8c0-0.8,0.1-1.5,0.4-2.2
			c0.3-0.7,0.7-1.2,1.2-1.6c0.5-0.4,1-0.6,1.6-0.6c0.6,0,1.1,0.1,1.4,0.4c0.3,0.3,0.5,0.6,0.5,1.1c0,0.7-0.3,1.3-1,1.7
			c-0.7,0.4-1.6,0.6-2.9,0.6h-0.2l0,0.5c0,0.5,0.1,0.9,0.4,1.2c0.2,0.3,0.6,0.4,1.2,0.4c0.3,0,0.5,0,0.8-0.1s0.6-0.2,1-0.4V49
			c-0.4,0.2-0.7,0.3-1,0.4S257.3,49.5,256.9,49.5z M257.8,43.5c-0.4,0-0.8,0.2-1.2,0.6c-0.4,0.4-0.6,0.9-0.8,1.6h0.1
			c0.9,0,1.6-0.1,2.1-0.4c0.5-0.2,0.7-0.6,0.7-1c0-0.2-0.1-0.4-0.2-0.5C258.3,43.5,258.1,43.5,257.8,43.5z"/>
	</g>
</g>
</svg>
