<?xml version="1.0" encoding="utf-8"?>
<!-- Generator: Adobe Illustrator 18.0.0, SVG Export Plug-In . SVG Version: 6.00 Build 0)  -->
<!DOCTYPE svg PUBLIC "-//W3C//DTD SVG 1.1//EN" "http://www.w3.org/Graphics/SVG/1.1/DTD/svg11.dtd">
<svg version="1.1" id="Layer_1" xmlns="http://www.w3.org/2000/svg" xmlns:xlink="http://www.w3.org/1999/xlink" x="0px" y="0px"
	 viewBox="0 0 157.8 17.3" enable-background="new 0 0 157.8 17.3" xml:space="preserve">
<g>
	<g>
		<g>
			<path fill="#1FACE3" d="M141.1,0v17.3h16.6V0H141.1z M155.4,9.6l-2.3,1.8c-0.7,0.5-1.7,1.4-2.4,1.9l-2.3,1.8
				c-0.7,0.5-1.2,0.1-1.2-1v-1.5c-0.3,0.2-0.6,0.5-0.8,0.7l-2.3,1.8c-0.7,0.5-1.2,0.1-1.2-1v-3.6V6.7V3.1c0-1.1,0.5-1.5,1.2-1
				l2.3,1.8c0.2,0.2,0.5,0.4,0.8,0.7V3.1c0-1.1,0.5-1.5,1.2-1l2.3,1.8c0.7,0.5,1.7,1.4,2.4,1.9l2.3,1.8
				C156.1,8.2,156.1,9.1,155.4,9.6z"/>
			<path fill="#1FACE3" d="M151.1,7.7l-2.3-1.8c-0.4-0.3-1-0.8-1.5-1.2v2.1v3.8v2.1c0.5-0.4,1.1-0.9,1.5-1.2l2.3-1.8
				C151.8,9.1,151.8,8.2,151.1,7.7"/>
		</g>
	</g>
	<g>
		<path fill="#FFFFFF" d="M0,2.7h7.2C7.6,2.7,8,2.9,8,3.5S7.6,4.3,7.2,4.3H1.6v2.5h4C6,6.8,6.4,7,6.4,7.6S6,8.4,5.6,8.4h-4v6.1
			c0,0.5-0.2,0.8-0.8,0.8S0,15,0,14.5V2.7z"/>
		<path fill="#FFFFFF" d="M14.9,3.5c0.1-0.4,0.3-0.8,0.8-0.8c0.5,0,0.7,0.4,0.8,0.8l3.1,11c0.1,0.4-0.3,0.8-0.8,0.8
			c-0.5,0-0.8-0.4-0.9-0.8l-0.6-1.9H14l-0.6,1.9c-0.1,0.4-0.4,0.8-0.9,0.8c-0.5,0-0.9-0.4-0.8-0.8L14.9,3.5z M15.7,6.5L15.7,6.5
			l-1.3,4.4H17L15.7,6.5z"/>
		<path fill="#FFFFFF" d="M30.8,12.1c0.3,0.4,0.6,0.8,0.6,1.3c0,1.2-0.9,1.8-2,1.8h-3.6c-0.6,0-1.2-0.1-1.6-0.5
			c-0.4-0.4-0.8-0.9-0.8-1.5c0-0.5,0.3-1,0.9-1c0.5,0,0.8,0.4,0.8,0.8c0,0.5,0.3,0.6,0.7,0.6h3.5c0.1,0,0.5,0,0.5-0.2
			c0-0.1-0.2-0.4-0.3-0.5l-5.6-7.2c-0.3-0.4-0.5-0.8-0.5-1.3c0-0.6,0.3-1.2,0.9-1.6c0.5-0.3,0.8-0.3,1.3-0.3H29
			c0.6,0,1.1,0.1,1.6,0.5c0.4,0.4,0.8,1,0.8,1.5c0,0.5-0.3,0.9-0.8,0.9c-0.5,0-0.8-0.3-0.8-0.8c0-0.6-0.3-0.6-0.8-0.6h-3.4
			c-0.2,0-0.6,0-0.6,0.2c0,0.1,0.2,0.3,0.2,0.4L30.8,12.1z"/>
		<path fill="#FFFFFF" d="M36.7,4.3v0.6c0,0.5-0.2,0.8-0.8,0.8S35,5.4,35,4.9V2.7h8v2.2c0,0.5-0.2,0.8-0.8,0.8s-0.8-0.3-0.8-0.8V4.3
			h-1.6v10.2c0,0.5-0.2,0.8-0.8,0.8s-0.8-0.3-0.8-0.8V4.3H36.7z"/>
		<path fill="#FFFFFF" d="M58.4,2.7h7.2c0.4,0,0.8,0.2,0.8,0.8S66,4.3,65.6,4.3H60v2.5h4c0.4,0,0.8,0.2,0.8,0.8S64.4,8.4,64,8.4h-4
			v6.1c0,0.5-0.2,0.8-0.8,0.8s-0.8-0.3-0.8-0.8V2.7z"/>
		<path fill="#FFFFFF" d="M77.7,7.2C78,7.9,78.1,8.3,78.1,9c0,0.8-0.2,1.3-0.5,1.9l-1.5,3c-0.4,0.8-1,1.3-2,1.3
			c-0.9,0-1.6-0.6-2-1.3l-1.5-3c-0.3-0.7-0.5-1.2-0.5-1.9c0-0.7,0.1-1.2,0.4-1.8L72.1,4c0.4-0.8,1.1-1.3,2-1.3c0.9,0,1.6,0.6,2,1.3
			L77.7,7.2z M74.6,4.8c-0.1-0.3-0.2-0.5-0.6-0.5c-0.3,0-0.4,0.2-0.6,0.5l-1.5,2.9c-0.2,0.5-0.4,0.8-0.4,1.3c0,0.4,0.1,0.7,0.3,1.1
			l1.6,3.1c0.1,0.2,0.2,0.5,0.6,0.5c0.3,0,0.4-0.3,0.6-0.5l1.6-3.1c0.2-0.4,0.3-0.6,0.3-1.1c0-0.5-0.1-0.8-0.4-1.3L74.6,4.8z"/>
		<path fill="#FFFFFF" d="M83.4,14.5c0,0.5-0.2,0.8-0.8,0.8s-0.8-0.3-0.8-0.8V2.7h5.4c1.3,0,2.6,0.9,2.6,2.4v1.1
			c0,1.5-1.3,2.3-2.6,2.3h-1.5l3.6,5.2c0.2,0.2,0.4,0.6,0.4,0.9c0,0.5-0.4,0.8-0.8,0.8c-0.3,0-0.5-0.2-0.7-0.5l-4.5-6.4h-0.4V14.5z
			 M83.4,6.8H87c0.5,0,1.2,0,1.2-0.7V5c0-0.6-0.7-0.7-1.2-0.7h-3.6V6.8z"/>
		<path fill="#FFFFFF" d="M98.5,15.3c-0.6,0-0.9-0.1-1-0.7h0c-0.1,0.6-0.4,0.7-1,0.7h-1.2c-0.6,0-0.7-0.1-1-0.6l-0.6-1
			c-0.2-0.4-0.2-0.4-0.2-0.8V3.5c0-0.5,0.2-0.8,0.8-0.8s0.8,0.3,0.8,0.8v9.4l0.4,0.8h0.7l0.4-0.8V7.8c0-0.5,0.2-1,0.8-1
			s0.8,0.5,0.8,1v5.1l0.4,0.8h0.7l0.4-0.8V3.5c0-0.5,0.2-0.8,0.8-0.8s0.8,0.3,0.8,0.8v9.4c0,0.4,0,0.5-0.2,0.8l-0.6,1
			c-0.3,0.5-0.4,0.6-1,0.6H98.5z"/>
		<path fill="#FFFFFF" d="M108.3,3.5c0.1-0.4,0.3-0.8,0.8-0.8c0.5,0,0.7,0.4,0.8,0.8l3.1,11c0.1,0.4-0.3,0.8-0.8,0.8
			c-0.5,0-0.8-0.4-0.9-0.8l-0.6-1.9h-3.5l-0.6,1.9c-0.1,0.4-0.4,0.8-0.9,0.8c-0.5,0-0.9-0.4-0.8-0.8L108.3,3.5z M109.2,6.5
			L109.2,6.5l-1.3,4.4h2.5L109.2,6.5z"/>
		<path fill="#FFFFFF" d="M118.4,14.5c0,0.5-0.2,0.8-0.8,0.8s-0.8-0.3-0.8-0.8V2.7h5.5c1.3,0,2.6,0.9,2.6,2.4v1.1
			c0,1.5-1.3,2.3-2.6,2.3h-1.5l3.6,5.2c0.2,0.2,0.4,0.6,0.4,0.9c0,0.5-0.4,0.8-0.8,0.8c-0.3,0-0.5-0.2-0.7-0.5l-4.5-6.4h-0.4V14.5z
			 M118.4,6.8h3.6c0.5,0,1.2,0,1.2-0.7V5c0-0.6-0.7-0.7-1.2-0.7h-3.6V6.8z"/>
		<path fill="#FFFFFF" d="M130.1,4.3h-0.6c-0.5,0-1-0.2-1-0.8c0-0.6,0.4-0.8,0.9-0.8h2.7c1.3,0,1.9,0.5,2.4,1.6l1.4,2.9
			c0.3,0.7,0.5,1.1,0.5,1.9c0,0.6-0.2,1.2-0.5,1.8l-1.5,3c-0.6,1.2-1.3,1.5-2.6,1.5h-2.7c-0.4,0-0.8-0.2-0.8-0.8
			c0-0.6,0.4-0.8,0.8-0.8h0.8V4.3z M131.7,13.7h0.3c0.7,0,0.8-0.1,1.1-0.7l1.4-2.9c0.2-0.4,0.3-0.6,0.3-1.1c0-0.6-0.2-0.9-0.4-1.3
			L133.1,5c-0.3-0.7-0.5-0.7-1.2-0.7h-0.2V13.7z"/>
	</g>
</g>
</svg>
