<?xml version="1.0" encoding="utf-8"?>
<!-- Generator: Adobe Illustrator 18.0.0, SVG Export Plug-In . SVG Version: 6.00 Build 0)  -->
<!DOCTYPE svg PUBLIC "-//W3C//DTD SVG 1.1//EN" "http://www.w3.org/Graphics/SVG/1.1/DTD/svg11.dtd">
<svg version="1.1" id="Layer_1" xmlns="http://www.w3.org/2000/svg" xmlns:xlink="http://www.w3.org/1999/xlink" x="0px" y="0px"
	 viewBox="0 0 65.2 17.3" enable-background="new 0 0 65.2 17.3" xml:space="preserve">
<g>
	<g>
		<g>
			<path fill="#27A8E0" d="M0,0v17.3h16.6V0H0z M14.3,9.6L12,11.4c-0.7,0.5-1.7,1.4-2.4,1.9l-2.3,1.8c-0.7,0.5-1.2,0.1-1.2-1v-1.5
				c-0.3,0.2-0.6,0.5-0.8,0.7L3,15.2c-0.7,0.5-1.2,0.1-1.2-1v-3.6V6.7V3.1c0-1.1,0.5-1.5,1.2-1L5.3,4c0.2,0.2,0.5,0.4,0.8,0.7V3.1
				c0-1.1,0.5-1.5,1.2-1L9.6,4c0.7,0.5,1.7,1.4,2.4,1.9l2.3,1.8C14.9,8.2,14.9,9.1,14.3,9.6z"/>
			<path fill="#27A8E0" d="M10,7.7L7.7,5.9c-0.4-0.3-1-0.8-1.5-1.2v2.1v3.8v2.1c0.5-0.4,1.1-0.9,1.5-1.2L10,9.6
				C10.6,9.1,10.6,8.2,10,7.7"/>
		</g>
	</g>
	<g>
		<g>
			<path fill="#27A8E0" d="M24.3,0v17.3h16.6V0H24.3z M38.6,9.6l-2.3,1.8c-0.7,0.5-1.7,1.4-2.4,1.9l-2.3,1.8c-0.7,0.5-1.2,0.1-1.2-1
				v-1.5c-0.3,0.2-0.6,0.5-0.8,0.7l-2.3,1.8c-0.7,0.5-1.2,0.1-1.2-1v-3.6V6.7V3.1c0-1.1,0.5-1.5,1.2-1L29.6,4
				c0.2,0.2,0.5,0.4,0.8,0.7V3.1c0-1.1,0.5-1.5,1.2-1L33.9,4c0.7,0.5,1.7,1.4,2.4,1.9l2.3,1.8C39.2,8.2,39.2,9.1,38.6,9.6z"/>
			<path fill="#27A8E0" d="M34.3,7.7L32,5.9c-0.4-0.3-1-0.8-1.5-1.2v2.1v3.8v2.1c0.5-0.4,1.1-0.9,1.5-1.2l2.3-1.8
				C34.9,9.1,34.9,8.2,34.3,7.7"/>
		</g>
	</g>
	<g>
		<g>
			<path fill="#27A8E0" d="M48.6,0v17.3h16.6V0H48.6z M62.8,9.6l-2.3,1.8c-0.7,0.5-1.7,1.4-2.4,1.9l-2.3,1.8c-0.7,0.5-1.2,0.1-1.2-1
				v-1.5c-0.3,0.2-0.6,0.5-0.8,0.7l-2.3,1.8c-0.7,0.5-1.2,0.1-1.2-1v-3.6V6.7V3.1c0-1.1,0.5-1.5,1.2-1L53.9,4
				c0.2,0.2,0.5,0.4,0.8,0.7V3.1c0-1.1,0.5-1.5,1.2-1L58.2,4c0.7,0.5,1.7,1.4,2.4,1.9l2.3,1.8C63.5,8.2,63.5,9.1,62.8,9.6z"/>
			<path fill="#27A8E0" d="M58.5,7.7l-2.3-1.8c-0.4-0.3-1-0.8-1.5-1.2v2.1v3.8v2.1c0.5-0.4,1.1-0.9,1.5-1.2l2.3-1.8
				C59.2,9.1,59.2,8.2,58.5,7.7"/>
		</g>
	</g>
</g>
</svg>
