<?xml version="1.0" encoding="utf-8"?>
<!-- Generator: Adobe Illustrator 18.0.0, SVG Export Plug-In . SVG Version: 6.00 Build 0)  -->
<!DOCTYPE svg PUBLIC "-//W3C//DTD SVG 1.1//EN" "http://www.w3.org/Graphics/SVG/1.1/DTD/svg11.dtd">
<svg version="1.1" id="Layer_1" xmlns="http://www.w3.org/2000/svg" xmlns:xlink="http://www.w3.org/1999/xlink" x="0px" y="0px"
	 viewBox="0 0 91.5 30" enable-background="new 0 0 91.5 30" xml:space="preserve">
<g>
	<path fill-rule="evenodd" clip-rule="evenodd" fill="#FFFFFF" d="M9.3,18.6c-3.3-1.4-2.9,4.2,0,3.7c0,0,0,0,0,0.1l0,0l0,0l0,0l0,0
		l0,0l0,0l0,0l0,0c0,0,0,0,0-0.1c2.9,0.7,3.5-5.1,0-3.7c0-0.5,0.5-0.9,0.9-1c0.1,0,0.3-0.1,0.2-0.2c0-0.1-0.2-0.2-0.4-0.1
		C9.7,17.3,9.3,18.3,9.3,18.6z"/>
	<path fill-rule="evenodd" clip-rule="evenodd" fill="#FFFFFF" d="M17.6,16.6c1.1-3.4,5.1,0.6,2.7,2.5c0,0,0,0,0,0l0,0l0,0l0,0l0,0
		l0,0l0,0l0,0l0,0c0,0,0,0,0,0c-1.4,2.7-6.2-0.7-2.8-2.5c-0.3-0.4-1-0.3-1.4,0c-0.1,0.1-0.2,0.1-0.3,0c-0.1-0.1,0-0.3,0.2-0.4
		C16.3,16,17.2,16.4,17.6,16.6z"/>
	<path fill-rule="evenodd" clip-rule="evenodd" fill="#FFFFFF" d="M4.7,7.1C3.4,3.8-0.4,7.9,2,9.7c0,0,0,0,0,0l0,0l0,0l0,0l0,0l0,0
		l0,0l0,0l0,0c0,0,0,0,0,0c1.5,2.7,6.1-0.9,2.7-2.6c0.3-0.4,1-0.3,1.4-0.1c0.1,0.1,0.2,0.1,0.3,0c0.1-0.1,0-0.3-0.2-0.4
		C6,6.5,5,6.9,4.7,7.1z"/>
	<path fill-rule="evenodd" clip-rule="evenodd" fill="#FFFFFF" d="M11.7,11.9c-3.5-0.6-1.9,4.8,0.8,3.6c0,0,0,0,0,0.1l0,0l0,0l0,0
		l0,0l0,0l0,0l0,0l0,0c0,0,0,0,0-0.1c3,0.1,2.3-5.7-0.8-3.7c-0.2-0.5,0.3-1,0.7-1.2c0.1-0.1,0.2-0.1,0.1-0.3c-0.1-0.1-0.3-0.1-0.4,0
		C11.8,10.4,11.7,11.5,11.7,11.9z"/>
	<path fill-rule="evenodd" clip-rule="evenodd" fill="#FFFFFF" d="M11.8,5.4c3.4-0.9,2.3,4.6-0.5,3.6c0,0,0,0,0,0.1l0,0l0,0l0,0l0,0
		l0,0l0,0l0,0l0,0c0,0,0,0,0-0.1c-3,0.3-2.8-5.5,0.5-3.7c0.1-0.5-0.3-1-0.7-1.1c-0.1-0.1-0.2-0.1-0.2-0.3c0.1-0.1,0.3-0.2,0.4-0.1
		C11.6,3.9,11.8,5,11.8,5.4z"/>
	<path fill-rule="evenodd" clip-rule="evenodd" fill="#FFFFFF" d="M6.3,13.5c-1.1-3.4-5.1,0.6-2.8,2.4c0,0,0,0,0,0l0,0l0,0l0,0l0,0
		l0,0l0,0l0,0l0,0c0,0,0,0,0,0c1.4,2.7,6.2-0.7,2.8-2.4c0.3-0.3,1-0.3,1.4,0c0.1,0.1,0.2,0.1,0.3,0c0.1-0.1,0-0.3-0.2-0.4
		C7.6,12.9,6.7,13.3,6.3,13.5z"/>
	<path fill-rule="evenodd" clip-rule="evenodd" fill="#FFFFFF" d="M15.4,2.4c-2.9-2-3.7,3.5-0.7,3.6c0,0,0,0,0,0.1l0,0l0,0l0,0l0,0
		l0,0l0,0l0,0l0,0c0,0,0,0,0-0.1c2.7,1.3,4.5-4.3,0.8-3.7c0-0.5,0.7-0.8,1.1-0.8c0.1,0,0.3,0,0.2-0.2c0-0.1-0.2-0.2-0.4-0.2
		C16.1,1.1,15.6,2,15.4,2.4z"/>
	<path fill-rule="evenodd" clip-rule="evenodd" fill="#FFFFFF" d="M21.7,9.8c-0.8-3.5-5.1,0.1-3,2.2c0,0,0,0,0,0l0,0l0,0l0,0l0,0
		l0,0l0,0l0,0l0,0c0,0,0,0,0.1,0c1.1,2.8,6.2-0.1,3-2.2c0.4-0.3,1-0.2,1.4,0.1c0.1,0.1,0.2,0.2,0.3,0c0.1-0.1,0-0.3-0.1-0.4
		C23.1,9.3,22.1,9.7,21.7,9.8z"/>
	<path fill-rule="evenodd" clip-rule="evenodd" fill="#FFFFFF" d="M7.1,2.2c1.4-3.3,5,1.1,2.5,2.7c0,0,0,0,0,0l0,0l0,0l0,0l0,0l0,0
		l0,0l0,0l0,0c0,0,0,0,0,0C7.9,7.6,3.5,3.7,7,2.3C6.7,1.9,6,1.9,5.6,2.2c-0.1,0.1-0.2,0.1-0.3,0C5.2,2,5.3,1.8,5.5,1.7
		C5.9,1.5,6.8,2,7.1,2.2z"/>
	<path fill-rule="evenodd" clip-rule="evenodd" fill="#FFFFFF" d="M6.9,18.4c-1.7-0.2-2.7,0.7-3.1,2.3C5.9,20.7,6.9,20,6.9,18.4z"/>
	<path fill-rule="evenodd" clip-rule="evenodd" fill="#FFFFFF" d="M13,18.2c1.2,1.3,1,2.5,0.1,3.9C11.8,20.5,11.7,19.2,13,18.2z"/>
	<path fill-rule="evenodd" clip-rule="evenodd" fill="#FFFFFF" d="M11,18.3c0-1.8,1-2.6,2.6-2.9C13.4,17.5,12.6,18.5,11,18.3z"/>
	<path fill-rule="evenodd" clip-rule="evenodd" fill="#FFFFFF" d="M14,17.9c-0.8-1.6-0.2-2.7,1.2-3.7C15.9,16.2,15.6,17.4,14,17.9z"
		/>
	<path fill-rule="evenodd" clip-rule="evenodd" fill="#FFFFFF" d="M16.7,20.6c-1.7,0.2-2.6-0.8-3.1-2.3C15.7,18.3,16.8,19,16.7,20.6
		z"/>
	<path fill-rule="evenodd" clip-rule="evenodd" fill="#FFFFFF" d="M16.6,15.8c-0.2-1.7,0.7-2.7,2.3-3.1C19,14.8,18.3,15.8,16.6,15.8
		z"/>
	<path fill-rule="evenodd" clip-rule="evenodd" fill="#FFFFFF" d="M19,14.3c1.3-1.2,2.6-0.9,3.9,0.1C21.2,15.6,19.9,15.6,19,14.3z"
		/>
	<path fill-rule="evenodd" clip-rule="evenodd" fill="#FFFFFF" d="M9.6,17c-1,1.4-2.3,1.5-3.8,0.8C7.1,16.2,8.4,15.8,9.6,17z"/>
	<path fill-rule="evenodd" clip-rule="evenodd" fill="#FFFFFF" d="M7,9.9C6,8.4,6.5,7.2,7.7,6.1C8.7,7.9,8.5,9.2,7,9.9z"/>
	<path fill-rule="evenodd" clip-rule="evenodd" fill="#FFFFFF" d="M11.5,11c-1.7,0.4-2.7-0.4-3.4-1.9C10.1,8.8,11.3,9.4,11.5,11z"/>
	<path fill-rule="evenodd" clip-rule="evenodd" fill="#FFFFFF" d="M10,11.3c-0.7,1.6-2,1.9-3.6,1.4C7.4,11,8.6,10.4,10,11.3z"/>
	<path fill-rule="evenodd" clip-rule="evenodd" fill="#FFFFFF" d="M8,13.9c1.8,0.1,2.5,1.1,2.7,2.8C8.6,16.4,7.7,15.5,8,13.9z"/>
	<path fill-rule="evenodd" clip-rule="evenodd" fill="#FFFFFF" d="M17,7.2c-0.2-1.7,0.8-2.6,2.4-3.1C19.4,6.2,18.6,7.3,17,7.2z"/>
	<path fill-rule="evenodd" clip-rule="evenodd" fill="#FFFFFF" d="M16,8.9c0.8-1.6,2.1-1.8,3.6-1.3C18.5,9.3,17.3,9.8,16,8.9z"/>
	<path fill-rule="evenodd" clip-rule="evenodd" fill="#FFFFFF" d="M16.7,6.4c-1.8-0.1-2.6,0.8-3,2.4C15.7,8.8,16.8,8,16.7,6.4z"/>
	<path fill-rule="evenodd" clip-rule="evenodd" fill="#FFFFFF" d="M12.4,9.4c0.6,1.7,1.8,2.1,3.4,1.8C15,9.3,13.9,8.6,12.4,9.4z"/>
	<path fill-rule="evenodd" clip-rule="evenodd" fill="#FFFFFF" d="M18.2,12.2c0.1-1.8-0.9-2.6-2.5-3C15.8,11.3,16.6,12.3,18.2,12.2z
		"/>
	<path fill-rule="evenodd" clip-rule="evenodd" fill="#FFFFFF" d="M14.8,11.3c-0.5,1.7,0.2,2.7,1.7,3.5C17,12.8,16.4,11.6,14.8,11.3
		z"/>
	<path fill-rule="evenodd" clip-rule="evenodd" fill="#FFFFFF" d="M19.7,5c1.7,0.5,2.1,1.8,1.9,3.4C19.6,7.6,19,6.5,19.7,5z"/>
	<path fill-rule="evenodd" clip-rule="evenodd" fill="#FFFFFF" d="M7.7,10.8c-0.9,1.5-2.2,1.6-3.7,0.9C5.2,10.1,6.4,9.7,7.7,10.8z"
		/>
	<path fill-rule="evenodd" clip-rule="evenodd" fill="#FFFFFF" d="M5.2,17.8c-1.5-0.9-2.7-0.5-3.8,0.8C3.3,19.5,4.6,19.3,5.2,17.8z"
		/>
	<path fill-rule="evenodd" clip-rule="evenodd" fill="#FFFFFF" d="M3.4,17c-0.3-1.7-1.4-2.4-3.1-2.3C0.8,16.7,1.8,17.5,3.4,17z"/>
	<path fill-rule="evenodd" clip-rule="evenodd" fill="#FFFFFF" d="M0,14.2c0.6-1.7,1.8-2.1,3.4-1.8C2.6,14.3,1.5,14.9,0,14.2z"/>
	<path fill-rule="evenodd" clip-rule="evenodd" fill="#FFFFFF" d="M0,10.4c1.6-0.6,2.8,0.1,3.6,1.5C1.6,12.4,0.4,12,0,10.4z"/>
	<path fill-rule="evenodd" clip-rule="evenodd" fill="#FFFFFF" d="M3.4,4.6C5.1,4,6.1,4.8,6.9,6.2C4.9,6.7,3.7,6.2,3.4,4.6z"/>
	<path fill-rule="evenodd" clip-rule="evenodd" fill="#FFFFFF" d="M12.3,3.4c-1.7-0.2-2.4-1.4-2.4-3C11.9,0.8,12.8,1.8,12.3,3.4z"/>
	<path fill-rule="evenodd" clip-rule="evenodd" fill="#FFFFFF" d="M11.9,0.3c1.6-0.8,2.7-0.2,3.7,1.2C13.6,2.2,12.4,1.9,11.9,0.3z"
		/>
	<path fill-rule="evenodd" clip-rule="evenodd" fill="#FFFFFF" d="M13.8,28.1c-1.3-1-0.7-4.3,0-5.4c-0.7,0.2-1.4-0.3-1.8-0.8
		c-0.5,0.8-1.8,1.2-2.4,1.1c0.5,1.2,1.1,3.7-1.1,5.2c-1.8,0.4-2.9,1.1-2.9,1.8c0,0,0,0.1,0,0.1c1.1-0.7,3-1.2,5.2-1.3
		c2.3-0.1,4.4,0.3,5.7,0.9c0,0,0-0.1,0-0.1C16.6,29,15.4,28.4,13.8,28.1z"/>
	<g>
		<path fill="#FFFFFF" d="M37,5l-0.1,1c0,0.2,0,0.5-0.1,0.9l-0.1,0.7l-0.1,0.1h-0.5l-0.1-0.1c0-0.8-0.1-1.2-0.1-1.4
			C35.8,6,35,6,33.5,6c-0.2,0-0.6,0-1.1,0.1c-0.1,0.6-0.1,1.7-0.1,3.2v1.2l1,0c0.3,0,0.9,0,1.7,0c0.2,0,0.3-0.1,0.3-0.1
			c0.1-0.1,0.1-0.5,0.2-1.2L35.5,9H36l0.1,0.1c0,0.7,0,1.3,0,1.8c0,0.6,0,1.2,0,2L36,13h-0.6l-0.1-0.1c0-0.6,0-1-0.1-1.1
			c-0.1-0.2-0.4-0.3-0.9-0.4c-0.3,0-0.7,0-1,0c-0.4,0-0.8,0-1.1,0v2.1c0,1.4,0,2.3,0.1,2.7c0,0.2,0.1,0.3,0.3,0.3c0,0,0.5,0,1.3,0.1
			l0.1,0.1v0.6l-0.1,0.1l-3.6-0.1c-0.5,0-1.2,0-2.1,0.1l-0.1-0.1v-0.6l0.1-0.1c0.6,0,0.9-0.1,1-0.1c0.2,0,0.3-0.2,0.3-0.3
			c0.1-0.4,0.1-1.3,0.1-2.7V8.8c0-1.4,0-2.3-0.1-2.7c0-0.2-0.1-0.3-0.3-0.3c-0.1,0-0.4-0.1-1-0.1l-0.1-0.1V5l0.1-0.1
			c0.6,0,1.5,0.1,2.7,0.1C31.8,5,33.7,4.9,37,5L37,5z"/>
		<path fill="#FFFFFF" d="M44.7,8.8l-0.1,1.6c0,0.3,0,0.6,0,0.9l-0.4,0.1c-0.3-0.4-0.7-0.6-1.2-0.6c-0.4,0-0.8,0.2-1.1,0.5
			c-0.2,0.2-0.3,0.5-0.3,1v2.1c0,0.4,0,1,0.1,1.8c0,0.2,0.1,0.4,0.2,0.4c0.1,0.1,0.5,0.1,1.2,0.1l0.1,0.1v0.5l-0.1,0.1
			c-0.9,0-1.7-0.1-2.6-0.1c-1.1,0-1.9,0-2.4,0.1l-0.1-0.1v-0.5l0.1-0.1c0.6,0,0.9-0.1,1.1-0.1c0.1-0.1,0.2-0.2,0.2-0.4
			c0-0.8,0.1-1.6,0.1-2.5v-1.3c0-1.2,0-1.9-0.1-2c-0.1-0.1-0.2-0.2-0.4-0.2c-0.1,0-0.3,0-0.8,0l-0.1-0.1V9.6l0.1-0.1
			c1.1-0.1,2.2-0.3,3.4-0.7l0.2,0.1l0,1.7c0.4-0.4,0.8-0.9,1.3-1.5c0.2-0.2,0.6-0.4,1-0.4C44.3,8.7,44.5,8.8,44.7,8.8z"/>
		<path fill="#FFFFFF" d="M55.4,17.4L55.4,17.4c-1,0.1-1.5,0-1.8,0c-0.2,0-0.5,0-0.9,0c-0.4,0-0.7,0-0.9,0l-0.1-0.1
			c0-0.5,0.1-0.9,0.1-1.4c-0.3,0.2-0.8,0.7-1.6,1.5c-0.4,0.1-0.8,0.2-1.2,0.2c-0.8,0-1.4-0.2-1.9-0.7c-0.5-0.4-0.7-1.1-0.7-1.9
			c0-0.1,0-0.3,0-0.6c0-0.3,0-0.6,0-0.9v-1.1c0-1.2,0-1.8-0.1-2c-0.1-0.1-0.2-0.2-0.4-0.2c-0.1,0-0.3,0-0.8,0l-0.1-0.1V9.6l0.1-0.1
			c1.1-0.1,2.3-0.3,3.4-0.7l0.2,0.1c-0.1,1-0.1,1.9-0.1,2.7v1.7c0,0.8,0,1.4,0.1,1.7c0.1,0.4,0.2,0.6,0.4,0.8
			c0.2,0.2,0.5,0.3,0.9,0.3c0.5,0,0.9-0.1,1.2-0.4c0.3-0.3,0.5-0.6,0.5-1c0-0.3,0-0.5,0-0.5v-1.6c0-1.2,0-1.8-0.1-2
			c-0.1-0.1-0.2-0.2-0.4-0.2c-0.1,0-0.3,0-0.8,0l-0.1-0.1V9.6l0.1-0.1c1.1-0.1,2.3-0.3,3.4-0.7l0.2,0.1c-0.1,0.9-0.1,1.8-0.1,2.7
			v2.8c0,1.2,0,2,0.1,2.1c0,0.1,0.1,0.1,0.2,0.2c0.1,0,0.4,0.1,0.9,0.1l0.1,0.1V17.4z"/>
		<path fill="#FFFFFF" d="M61.3,17.4L61.3,17.4c-0.6,0-1.5,0-2.5,0c-1.1,0-1.9,0-2.4,0.1l-0.1-0.1v-0.5l0.1-0.1
			c0.6,0,0.9-0.1,1.1-0.1c0.1-0.1,0.2-0.2,0.2-0.4c0-0.8,0.1-1.6,0.1-2.5v-1.3c0-1.1,0-1.8-0.1-2c0-0.1-0.2-0.2-0.4-0.2
			c-0.1,0-0.3,0-0.8,0l-0.1-0.1V9.6l0.1-0.1c1.1-0.1,2.3-0.3,3.4-0.7L60,8.8c-0.1,1.1-0.1,2-0.1,2.7v2.8c0,0.4,0,1,0.1,1.8
			c0,0.2,0.1,0.4,0.2,0.4c0.1,0.1,0.5,0.1,1.1,0.1l0.1,0.1V17.4z M60.1,5.8c0,0.4-0.1,0.7-0.4,1c-0.3,0.3-0.6,0.4-1,0.4
			c-0.4,0-0.7-0.1-1-0.4c-0.3-0.3-0.4-0.6-0.4-1c0-0.4,0.1-0.7,0.4-1c0.3-0.3,0.6-0.4,1-0.4c0.4,0,0.7,0.1,1,0.4
			C60,5.1,60.1,5.4,60.1,5.8z"/>
		<path fill="#FFFFFF" d="M67.7,16.2c0,0-0.2,0.2-0.4,0.4c-0.3,0.3-0.6,0.6-0.9,0.9c-0.3,0.1-0.6,0.1-0.9,0.1
			c-0.8,0-1.4-0.2-1.8-0.7c-0.2-0.2-0.3-0.4-0.3-0.7c-0.1-0.3-0.1-0.8-0.1-1.3l0-2.1v-2.2h-0.2l-0.5,0h-0.4l-0.1-0.1v-0.2l0.1-0.1
			c0.1-0.1,0.3-0.2,0.5-0.3c0.3-0.2,0.5-0.3,0.6-0.4V8.3c0-0.5,0-1-0.1-1.6c0.4-0.1,0.8-0.3,1.1-0.4c0.3-0.1,0.7-0.3,1.2-0.5
			l0.2,0.2c-0.1,0.7-0.1,1.4-0.2,2l-0.1,1.5h0.3c0.6,0,1.2,0,1.7-0.1l0.1,0.1l-0.1,1l-0.1,0.1h-1.8v3c0,1,0,1.5,0,1.7
			c0,0.3,0.1,0.5,0.3,0.6c0.2,0.2,0.4,0.2,0.7,0.2c0.2,0,0.5-0.1,0.9-0.2L67.7,16.2z"/>
		<path fill="#FFFFFF" d="M74.8,4.3l0,0.9l0,0.9l-0.3,0.2c-0.3-0.3-0.6-0.4-1.1-0.4c-0.7,0-1.1,0.3-1.2,0.8c0,0.3-0.1,0.8-0.1,1.6
			v1.2H73c0.4,0,0.9,0,1.6-0.1l0.1,0.1l-0.2,1l-0.1,0.1l-1.3,0c-0.4,0-0.8,0-0.9,0v1.6c0,2.7,0,4.1,0.1,4.3c0,0.1,0.1,0.2,0.2,0.2
			c0.2,0,0.6,0.1,1.2,0.1l0.1,0.1v0.5l-0.1,0.1l-0.7,0c-0.6,0-1.3,0-2,0c-1.1,0-1.9,0-2.4,0.1l-0.1-0.1v-0.5l0.1-0.1
			c0.6,0,0.9-0.1,1.1-0.1c0.1-0.1,0.2-0.2,0.2-0.4c0-0.8,0.1-2.1,0.1-4v-1.6c-0.1,0-0.2,0-0.2,0c-0.1,0-0.2,0-0.5,0
			c-0.1,0-0.3,0-0.6,0l-0.1-0.1v-0.3l0.1-0.1l0.8-0.4c0.2-0.1,0.3-0.2,0.5-0.3c0,0,0-0.1,0-0.2V9.2c0-0.9,0.1-1.5,0.2-1.9
			c0.1-0.2,0.2-0.4,0.4-0.6c0.1-0.1,0.4-0.4,1.2-1.1l0.5-0.5c0.2-0.2,0.4-0.3,0.6-0.6c0.3-0.2,0.7-0.4,1.2-0.4
			C74.3,4.2,74.5,4.2,74.8,4.3z"/>
		<path fill="#FFFFFF" d="M85.6,17.4L85.6,17.4c-1,0.1-1.5,0-1.8,0c-0.2,0-0.5,0-0.9,0c-0.4,0-0.7,0-0.9,0L82,17.4
			c0-0.5,0.1-0.9,0.1-1.4c-0.3,0.2-0.8,0.7-1.6,1.5c-0.4,0.1-0.8,0.2-1.2,0.2c-0.8,0-1.4-0.2-1.9-0.7c-0.5-0.4-0.7-1.1-0.7-1.9
			c0-0.1,0-0.3,0-0.6c0-0.3,0-0.6,0-0.9v-1.1c0-1.2,0-1.8-0.1-2c-0.1-0.1-0.2-0.2-0.4-0.2c-0.1,0-0.3,0-0.8,0l-0.1-0.1V9.6l0.1-0.1
			c1.1-0.1,2.3-0.3,3.4-0.7L79,8.8c-0.1,1-0.1,1.9-0.1,2.7v1.7c0,0.8,0,1.4,0.1,1.7c0.1,0.4,0.2,0.6,0.4,0.8
			c0.2,0.2,0.5,0.3,0.9,0.3c0.5,0,0.9-0.1,1.2-0.4c0.3-0.3,0.5-0.6,0.5-1c0-0.3,0-0.5,0-0.5v-1.6c0-1.2,0-1.8-0.1-2
			c-0.1-0.1-0.2-0.2-0.4-0.2c-0.1,0-0.3,0-0.8,0l-0.1-0.1V9.6l0.1-0.1c1.1-0.1,2.3-0.3,3.4-0.7l0.2,0.1c-0.1,0.9-0.1,1.8-0.1,2.7
			v2.8c0,1.2,0,2,0.1,2.1c0,0.1,0.1,0.1,0.2,0.2c0.1,0,0.4,0.1,0.9,0.1l0.1,0.1V17.4z"/>
		<path fill="#FFFFFF" d="M91.5,17.4L91.5,17.4c-0.6,0-1.5,0-2.5,0c-1.1,0-1.9,0-2.4,0.1l-0.1-0.1v-0.5l0.1-0.1
			c0.6,0,0.9-0.1,1.1-0.1c0.1-0.1,0.2-0.2,0.2-0.4c0-0.8,0.1-2.1,0.1-4v-3c0-1.2,0-2.2-0.1-3c0-0.2-0.1-0.4-0.2-0.4
			c-0.1-0.1-0.5-0.1-1-0.1l-0.1-0.1V5l0.1-0.1c1.1-0.1,2.3-0.4,3.4-0.7l0.2,0.1c0,0.2,0,0.5,0,0.9c-0.1,1.4-0.1,3-0.1,4.7v2.3
			c0,1.9,0,3.3,0.1,4c0,0.2,0.1,0.4,0.2,0.4c0.1,0.1,0.5,0.1,1.1,0.1l0.1,0.1V17.4z"/>
	</g>
	<g>
		<g>
			<path fill="#FFFFFF" d="M31.5,22c0.5,0,0.8,0,0.9,0c0.2,0,0.4,0,0.6,0c0.2,0,0.4,0,0.4,0c0.3,0,0.5,0,0.7,0.1
				c0.2,0.1,0.3,0.2,0.4,0.3c0.1,0.1,0.2,0.3,0.2,0.5c0,0.2,0,0.3-0.1,0.5c-0.1,0.2-0.2,0.3-0.3,0.4c-0.1,0.1-0.3,0.2-0.4,0.2
				c-0.1,0.1-0.3,0.1-0.5,0.1c-0.1,0-0.3,0-0.4,0l0-0.2l0,0c0.1,0,0.3,0,0.4,0c0.3,0,0.5-0.1,0.6-0.2c0.2-0.2,0.2-0.4,0.2-0.6
				c0-0.3-0.1-0.5-0.2-0.6c-0.2-0.2-0.4-0.2-0.7-0.2c-0.2,0-0.4,0-0.6,0.1c0,0.1,0,0.5,0,1.1v1.3l0,0.6c0,0.2,0,0.4,0,0.4
				c0,0.1,0,0.1,0,0.1c0,0,0.1,0,0.1,0.1c0.1,0,0.2,0,0.4,0l0,0v0.1l0,0c-0.5,0-0.8,0-0.8,0c-0.1,0-0.3,0-0.8,0l0,0v-0.1l0,0
				c0.2,0,0.3,0,0.4,0c0.1,0,0.1,0,0.1,0c0,0,0-0.1,0-0.1c0-0.1,0-0.2,0-0.4l0-0.6v-1.3l0-0.6c0-0.2,0-0.4,0-0.4c0-0.1,0-0.1,0-0.1
				c0,0-0.1,0-0.1-0.1c-0.1,0-0.2,0-0.4,0l0,0L31.5,22L31.5,22z"/>
			<path fill="#FFFFFF" d="M36.2,22L36.2,22c0.5,0,0.8,0,0.8,0c0.1,0,0.3,0,0.8,0l0,0v0.1l0,0c-0.1,0-0.2,0-0.3,0
				c-0.1,0-0.1,0-0.2,0c0,0-0.1,0.1-0.1,0.2c0,0.1,0,0.2,0,0.3l0,0.7v0.9c0,0.3,0,0.5,0,0.7c0,0.1,0,0.3,0.1,0.4
				c0,0.1,0.1,0.2,0.2,0.3c0.1,0.1,0.2,0.1,0.4,0.2c0.2,0,0.3,0.1,0.5,0.1c0.2,0,0.4,0,0.6-0.1c0.2-0.1,0.3-0.1,0.4-0.3
				c0.1-0.1,0.2-0.3,0.2-0.4c0-0.2,0-0.4,0-0.8v-0.9c0-0.2,0-0.4,0-0.6c0-0.3,0-0.4,0-0.5c0,0-0.1-0.1-0.1-0.1c0,0-0.2,0-0.4,0l0,0
				V22l0,0c0.3,0,0.5,0,0.7,0c0.1,0,0.4,0,0.7,0l0,0v0.1l0,0c-0.2,0-0.3,0-0.4,0c-0.1,0-0.1,0-0.1,0c0,0,0,0.1,0,0.1
				c0,0,0,0.2,0,0.4l0,0.6v0.9c0,0.4,0,0.6,0,0.8c0,0.2-0.1,0.4-0.2,0.5c-0.1,0.1-0.2,0.2-0.3,0.3c-0.1,0.1-0.3,0.2-0.5,0.2
				c-0.2,0-0.4,0.1-0.6,0.1c-0.3,0-0.5,0-0.7-0.1c-0.2-0.1-0.4-0.1-0.5-0.2c-0.1-0.1-0.2-0.2-0.3-0.3c-0.1-0.1-0.1-0.2-0.1-0.4
				c0-0.1,0-0.4,0-0.7v-1.1l0-0.6c0-0.2,0-0.4,0-0.4c0-0.1,0-0.1,0-0.1c0,0-0.1,0-0.1-0.1c-0.1,0-0.2,0-0.4,0l0,0V22z"/>
			<path fill="#FFFFFF" d="M41.9,22.2L41.9,22.2l0-0.2l0,0c0.3,0,0.6,0,0.8,0c0.1,0,0.3,0,0.8,0c0.1,0,0.3,0,0.3,0
				c0.3,0,0.5,0,0.6,0.1c0.2,0.1,0.3,0.1,0.4,0.3c0.1,0.1,0.1,0.3,0.1,0.4c0,0.2-0.1,0.4-0.2,0.6c-0.2,0.2-0.4,0.3-0.7,0.4
				c0.2,0,0.4,0,0.5,0.1c0.1,0,0.3,0.1,0.3,0.2c0.1,0.1,0.2,0.2,0.2,0.3c0.1,0.1,0.1,0.3,0.1,0.4c0,0.1,0,0.2-0.1,0.4
				c0,0.1-0.1,0.3-0.2,0.4c-0.1,0.1-0.2,0.2-0.4,0.3C44.3,25.9,44.2,26,44,26c-0.2,0-0.3,0.1-0.6,0.1c0,0-0.2,0-0.4,0
				c-0.3,0-0.4,0-0.4,0c-0.1,0-0.3,0-0.5,0l0,0V26l0,0c0.1,0,0.2-0.1,0.2-0.1c0,0,0-0.2,0-0.5c0-0.3,0-0.6,0-0.7v-1.1l0-0.7
				c0-0.1,0-0.3,0-0.3c0-0.1,0-0.2,0-0.2c0,0,0-0.1,0-0.1c0,0,0,0-0.1,0c0,0-0.1,0-0.1,0L41.9,22.2z M43,23.7c0.1,0,0.2,0,0.3,0
				c0.4,0,0.7-0.1,0.8-0.2c0.2-0.1,0.2-0.3,0.2-0.6c0-0.1,0-0.3-0.1-0.4c-0.1-0.1-0.2-0.2-0.3-0.2c-0.1-0.1-0.3-0.1-0.5-0.1
				c-0.2,0-0.3,0-0.5,0c0,0.2,0,0.5,0,0.9V23.7z M43,25.8c0.1,0,0.3,0.1,0.5,0.1c0.3,0,0.5,0,0.6-0.1c0.2-0.1,0.3-0.2,0.3-0.4
				c0.1-0.2,0.1-0.3,0.1-0.5c0-0.3-0.1-0.5-0.2-0.7c-0.2-0.2-0.5-0.2-1-0.2c-0.1,0-0.2,0-0.3,0v1L43,25.8z"/>
			<path fill="#FFFFFF" d="M46.7,22L46.7,22c0.5,0,0.8,0,0.8,0c0.1,0,0.3,0,0.8,0l0,0v0.1l0,0c-0.1,0-0.2,0-0.3,0
				c-0.1,0-0.1,0-0.2,0c0,0-0.1,0.1-0.1,0.2c0,0.1,0,0.2,0,0.3l0,0.7v1.3c0,0.3,0,0.5,0,0.7l0,0.5h0.6c0.5,0,0.8,0,0.9,0
				s0.2,0,0.3-0.1c0,0,0.1-0.2,0.1-0.3c0-0.2,0.1-0.3,0.1-0.3l0,0H50l0,0c0,0.1,0,0.2,0,0.4c0,0.2,0,0.4,0,0.5l0,0
				c-0.4,0-0.8,0-1.4,0l-0.8,0c-0.2,0-0.4,0-0.6,0l0,0V26l0,0c0.1-0.1,0.2-0.1,0.2-0.1c0,0,0-0.1,0-0.4c0-0.2,0-0.5,0-0.8v-1.2
				l0-0.6c0-0.2,0-0.4,0-0.4c0-0.1,0-0.1,0-0.1c0,0-0.1,0-0.1-0.1c-0.1,0-0.2,0-0.4,0l0,0V22z"/>
			<path fill="#FFFFFF" d="M51.6,22l0.4,0c0.2,0,0.4,0,0.5,0c0.1,0,0.3,0,0.8,0l0,0v0.1l0,0c-0.1,0-0.2,0-0.3,0c-0.1,0-0.1,0-0.2,0
				c0,0-0.1,0.1-0.1,0.2c0,0.1,0,0.2,0,0.3l0,0.7v1.3l0,0.6c0,0.2,0,0.4,0,0.4c0,0.1,0,0.1,0,0.1c0,0,0.1,0,0.1,0.1
				c0.1,0,0.2,0,0.4,0l0,0v0.1l0,0c0,0-0.2,0-0.5,0c-0.1,0-0.2,0-0.3,0c-0.1,0-0.3,0-0.8,0l0,0v-0.1l0,0c0.2,0,0.3,0,0.4,0
				c0.1,0,0.1,0,0.1,0c0,0,0-0.1,0.1-0.1c0-0.1,0-0.2,0-0.4l0-0.6v-1.3l0-0.6c0-0.2,0-0.4,0-0.4c0-0.1,0-0.1,0-0.1
				c0,0-0.1,0-0.1-0.1c-0.1,0-0.2,0-0.4,0l0,0L51.6,22L51.6,22z"/>
			<path fill="#FFFFFF" d="M58.6,25.6l-0.1,0.3c-0.4,0.2-0.9,0.3-1.4,0.3c-0.7,0-1.3-0.2-1.7-0.6c-0.4-0.4-0.6-0.9-0.6-1.5
				c0-0.4,0.1-0.8,0.3-1.1c0.2-0.3,0.5-0.6,0.9-0.7c0.4-0.2,0.7-0.2,1.2-0.2c0.3,0,0.5,0,0.8,0.1c0.2,0.1,0.5,0.1,0.6,0.2l0,0
				c0,0.1-0.1,0.4-0.1,0.8l0,0h-0.1l0,0l0-0.5c-0.1-0.1-0.3-0.2-0.5-0.3c-0.2-0.1-0.4-0.1-0.6-0.1c-0.3,0-0.6,0.1-0.9,0.2
				c-0.3,0.1-0.5,0.3-0.6,0.6c-0.1,0.3-0.2,0.6-0.2,1c0,0.4,0.1,0.7,0.3,1c0.2,0.3,0.4,0.5,0.7,0.7c0.3,0.2,0.6,0.2,1,0.2
				c0.2,0,0.3,0,0.5,0c0.2,0,0.3-0.1,0.4-0.1C58.3,25.6,58.4,25.6,58.6,25.6L58.6,25.6z"/>
			<path fill="#FFFFFF" d="M60,26.1L60,26.1l0-0.2l0,0c0.1,0,0.2,0,0.3,0c0,0,0.1,0,0.1-0.1c0,0,0.1-0.2,0.2-0.4l0.3-0.7l0.8-1.8
				c0.1-0.3,0.3-0.7,0.4-1h0.2l1.2,2.9l0.2,0.4c0,0.1,0.1,0.2,0.2,0.4c0.1,0.1,0.1,0.2,0.1,0.2c0,0,0.1,0,0.1,0.1c0,0,0.1,0,0.2,0
				l0,0v0.2l0,0c-0.2,0-0.4,0-0.5,0c-0.3,0-0.6,0-1,0l0,0v-0.2l0,0c0.2,0,0.3,0,0.4,0c0.1,0,0.1,0,0.1-0.1c0,0,0-0.1,0-0.2l-0.4-0.9
				h-1.7l-0.3,0.7c-0.1,0.1-0.1,0.2-0.1,0.3c0,0,0,0.1,0.1,0.1c0.1,0,0.2,0,0.4,0l0,0v0.2l0,0c-0.2,0-0.5,0-0.6,0
				C60.4,26.1,60.2,26.1,60,26.1z M61.3,24.5h1.5l-0.7-1.7L61.3,24.5z"/>
			<path fill="#FFFFFF" d="M68.7,22L68.7,22c0,0.2,0,0.5,0,0.9l0,0h-0.1l0,0l0-0.3c0-0.1,0-0.2,0-0.3c0,0,0-0.1,0-0.1
				c0,0-0.1,0-0.2,0c-0.1,0-0.2,0-0.4,0h-0.5c0,0.4,0,0.7,0,0.8v1.7l0,0.6c0,0.2,0,0.4,0,0.4c0,0.1,0,0.1,0,0.1c0,0,0.1,0,0.1,0.1
				c0.1,0,0.2,0,0.4,0l0,0v0.1l0,0c-0.5,0-0.8,0-0.8,0c-0.1,0-0.3,0-0.8,0l0,0v-0.1l0,0c0.2,0,0.3,0,0.4,0c0.1,0,0.1,0,0.1,0
				c0,0,0-0.1,0.1-0.1c0-0.1,0-0.2,0-0.4l0-0.6V23c0,0,0-0.3,0-0.8h-0.4c-0.2,0-0.3,0-0.5,0c-0.1,0-0.2,0-0.2,0.1c0,0,0,0.1-0.1,0.3
				l0,0.3l0,0h-0.1l0,0c0-0.5,0-0.8,0-0.9l0,0c0.3,0,0.9,0,1.7,0C67.8,22,68.4,22,68.7,22z"/>
			<path fill="#FFFFFF" d="M70.2,22l0.4,0c0.2,0,0.4,0,0.5,0c0.1,0,0.3,0,0.8,0l0,0v0.1l0,0c-0.1,0-0.2,0-0.3,0c-0.1,0-0.1,0-0.2,0
				c0,0-0.1,0.1-0.1,0.2c0,0.1,0,0.2,0,0.3l0,0.7v1.3l0,0.6c0,0.2,0,0.4,0,0.4c0,0.1,0,0.1,0,0.1c0,0,0.1,0,0.1,0.1
				c0.1,0,0.2,0,0.4,0l0,0v0.1l0,0c0,0-0.2,0-0.5,0c-0.1,0-0.2,0-0.3,0c-0.1,0-0.3,0-0.8,0l0,0v-0.1l0,0c0.2,0,0.3,0,0.4,0
				c0.1,0,0.1,0,0.1,0c0,0,0-0.1,0-0.1c0-0.1,0-0.2,0-0.4l0-0.6v-1.3l0-0.6c0-0.2,0-0.4,0-0.4c0-0.1,0-0.1,0-0.1c0,0-0.1,0-0.1-0.1
				c-0.1,0-0.2,0-0.4,0l0,0L70.2,22L70.2,22z"/>
			<path fill="#FFFFFF" d="M73.3,24.1c0-0.3,0-0.6,0.1-0.8c0.1-0.3,0.2-0.5,0.4-0.7c0.2-0.2,0.4-0.4,0.7-0.5
				c0.3-0.1,0.6-0.2,0.9-0.2c0.7,0,1.2,0.2,1.6,0.5c0.4,0.4,0.6,0.8,0.6,1.5c0,0.4-0.1,0.8-0.3,1.2c-0.2,0.3-0.5,0.6-0.8,0.8
				c-0.4,0.2-0.8,0.3-1.2,0.3c-0.3,0-0.6,0-0.9-0.2c-0.3-0.1-0.5-0.3-0.7-0.5c-0.2-0.2-0.3-0.4-0.4-0.7
				C73.3,24.5,73.3,24.3,73.3,24.1z M73.9,23.9c0,0.2,0,0.5,0.1,0.8c0.1,0.3,0.2,0.5,0.3,0.7c0.2,0.2,0.3,0.3,0.5,0.4
				c0.2,0.1,0.4,0.1,0.7,0.1c0.3,0,0.6-0.1,0.8-0.2c0.2-0.1,0.4-0.4,0.5-0.6c0.1-0.3,0.2-0.6,0.2-1c0-0.4-0.1-0.7-0.2-1
				c-0.1-0.3-0.3-0.5-0.6-0.7c-0.3-0.1-0.5-0.2-0.8-0.2c-0.5,0-0.8,0.1-1.1,0.4C74,22.9,73.9,23.3,73.9,23.9z"/>
			<path fill="#FFFFFF" d="M79.2,26.1L79.2,26.1l0-0.2l0,0c0.1,0,0.2,0,0.3,0c0.1,0,0.1,0,0.1-0.1c0,0,0-0.1,0-0.1
				c0-0.1,0-0.2,0-0.4c0-0.2,0-0.4,0-0.4v-2.3c0-0.1,0-0.2-0.1-0.2c0,0-0.1-0.1-0.1-0.1c-0.1,0-0.2,0-0.3,0l0,0V22l0,0
				c0.3,0,0.4,0,0.5,0c0.2,0,0.4,0,0.5,0l0.9,1.2l1.3,1.7c0.2,0.2,0.3,0.4,0.5,0.6v-2.2c0-0.1,0-0.2,0-0.4c0-0.2,0-0.4,0-0.4
				c0-0.1,0-0.1,0-0.1c0,0-0.1,0-0.1,0c-0.1,0-0.2,0-0.3,0l0,0V22l0,0c0.2,0,0.4,0,0.7,0c0.3,0,0.5,0,0.6,0l0,0v0.1l0,0
				c-0.1,0-0.2,0-0.3,0c-0.1,0-0.1,0-0.1,0.1c0,0,0,0.1,0,0.1c0,0.1,0,0.2,0,0.4c0,0.2,0,0.4,0,0.5v1.4l0,0.8c0,0.3,0,0.5,0,0.8
				c-0.1,0-0.3-0.1-0.5-0.1l-0.2-0.2l-0.6-0.7l-1.9-2.4v2.2c0,0.1,0,0.2,0,0.5c0,0.2,0,0.4,0,0.4c0,0,0,0.1,0,0.1c0,0,0,0,0.1,0.1
				c0.1,0,0.2,0,0.3,0l0,0V26l0,0c-0.1,0-0.3,0-0.5,0C79.6,26.1,79.4,26.1,79.2,26.1z"/>
			<path fill="#FFFFFF" d="M85.3,25.1L85.3,25.1l0.2,0l0,0c0,0.2,0,0.4,0,0.5c0,0.1,0.1,0.1,0.2,0.2c0.1,0.1,0.2,0.1,0.3,0.1
				c0.1,0,0.3,0.1,0.4,0.1c0.2,0,0.4,0,0.5-0.1c0.2-0.1,0.3-0.2,0.4-0.3c0.1-0.1,0.1-0.3,0.1-0.5c0-0.1,0-0.2-0.1-0.3
				c0-0.1-0.1-0.2-0.2-0.2c-0.1-0.1-0.2-0.1-0.3-0.1c-0.1,0-0.2-0.1-0.4-0.1c-0.2,0-0.3-0.1-0.4-0.1c-0.1,0-0.2-0.1-0.3-0.1
				c-0.1-0.1-0.2-0.1-0.3-0.2c-0.1-0.1-0.1-0.2-0.2-0.3c0-0.1-0.1-0.2-0.1-0.4c0-0.4,0.1-0.7,0.4-0.9c0.2-0.2,0.6-0.3,1-0.3
				c0.2,0,0.3,0,0.5,0.1c0.2,0,0.4,0.1,0.5,0.2l0,0c0,0.2-0.1,0.4-0.1,0.8l0,0h-0.2l0,0c0-0.2,0-0.4,0-0.4c0-0.1-0.1-0.1-0.3-0.2
				c-0.2-0.1-0.3-0.1-0.5-0.1c-0.2,0-0.3,0-0.5,0.1c-0.1,0.1-0.2,0.2-0.3,0.3c-0.1,0.1-0.1,0.3-0.1,0.4c0,0.1,0,0.2,0.1,0.3
				c0,0.1,0.1,0.2,0.2,0.2c0.1,0.1,0.2,0.1,0.2,0.1c0.1,0,0.3,0.1,0.5,0.1c0.3,0,0.6,0.1,0.7,0.2c0.2,0.1,0.3,0.2,0.4,0.3
				c0.1,0.1,0.1,0.3,0.1,0.5c0,0.4-0.2,0.8-0.5,1c-0.3,0.3-0.7,0.4-1.2,0.4c-0.4,0-0.7-0.1-1-0.2l0,0C85.2,25.8,85.3,25.5,85.3,25.1
				z"/>
		</g>
	</g>
</g>
</svg>
