<?xml version="1.0" encoding="utf-8"?>
<!-- Generator: Adobe Illustrator 18.0.0, SVG Export Plug-In . SVG Version: 6.00 Build 0)  -->
<!DOCTYPE svg PUBLIC "-//W3C//DTD SVG 1.1//EN" "http://www.w3.org/Graphics/SVG/1.1/DTD/svg11.dtd">
<svg version="1.1" id="Layer_1" xmlns="http://www.w3.org/2000/svg" xmlns:xlink="http://www.w3.org/1999/xlink" x="0px" y="0px"
	 viewBox="0 42.7 124.3 39.6" enable-background="new 0 42.7 124.3 39.6" xml:space="preserve">
<g>
	<g>
		<defs>
			<rect id="SVGID_1_" x="-56.1" y="110.4" width="798.8" height="360.9"/>
		</defs>
		<clipPath id="SVGID_2_">
			<use xlink:href="#SVGID_1_"  overflow="visible"/>
		</clipPath>
		<g transform="matrix(1 0 0 1 0 -7.629395e-06)" opacity="0.4" clip-path="url(#SVGID_2_)">
		</g>
	</g>
</g>
<rect x="-56.1" y="18.4" display="none" fill="#181B20" width="798" height="92"/>
<g opacity="0.7" enable-background="new    ">
	<g>
		<defs>
			<rect id="SVGID_3_" x="-56.9" y="-514.1" width="797.8" height="74"/>
		</defs>
		<clipPath id="SVGID_4_">
			<use xlink:href="#SVGID_3_"  overflow="visible"/>
		</clipPath>
		<g clip-path="url(#SVGID_4_)">
		</g>
	</g>
</g>
<g>
	<g>
		
			<linearGradient id="SVGID_5_" gradientUnits="userSpaceOnUse" x1="17.1951" y1="107.7613" x2="34.6058" y2="90.3506" gradientTransform="matrix(0.7764 0 0 -0.7764 0 139.3634)">
			<stop  offset="0" style="stop-color:#F58B17"/>
			<stop  offset="0.5064" style="stop-color:#ED581D"/>
			<stop  offset="1" style="stop-color:#DD231D"/>
		</linearGradient>
		<path fill="url(#SVGID_5_)" d="M20.2,52.4c-5.6-0.1-10.1,4.4-10.2,9.9c-0.1,5.6,4.4,10.1,9.9,10.2c5.6,0.1,10.1-4.4,10.2-9.9
			C30.3,57,25.8,52.4,20.2,52.4z M20.1,67.5c-2.8,0-5-2.3-5-5.1s2.3-5,5.1-5s5,2.3,5,5.1C25.2,65.3,22.9,67.5,20.1,67.5z"/>
		
			<linearGradient id="SVGID_6_" gradientUnits="userSpaceOnUse" x1="1.3407" y1="123.3969" x2="42.6562" y2="82.0814" gradientTransform="matrix(0.7764 0 0 -0.7764 0 139.3634)">
			<stop  offset="0" style="stop-color:#F58B17"/>
			<stop  offset="0.5064" style="stop-color:#ED581D"/>
			<stop  offset="1" style="stop-color:#DD231D"/>
		</linearGradient>
		<path fill="url(#SVGID_6_)" d="M20,42.7L20,42.7L20,42.7H0.2v19.8c0,10.9,8.9,19.8,19.8,19.8s19.8-8.9,19.8-19.8
			C39.8,51.6,30.9,42.7,20,42.7z M20,76.1C12.4,76,6.3,69.8,6.4,62.3c0.1-7.6,6.3-13.7,13.9-13.6c7.6,0.1,13.7,6.3,13.6,13.9
			C33.8,70.1,27.6,76.2,20,76.1z"/>
	</g>
	<g>
		<path fill="#FFFFFF" d="M48.1,50.9c1.1,0,1.9,0.9,1.9,1.9s-0.9,1.9-1.9,1.9c-1.1,0-1.9-0.9-1.9-1.9S47,50.9,48.1,50.9z M48.1,73.2
			c-1,0-1.7-0.8-1.7-1.7V58.9c0-0.9,0.7-1.7,1.7-1.7c0.9,0,1.7,0.8,1.7,1.7v12.7C49.8,72.4,49.1,73.2,48.1,73.2z"/>
		<path fill="#FFFFFF" d="M60.2,73.4c-2.3,0-4.3-0.7-5.7-1.8c-0.5-0.4-0.7-0.9-0.7-1.4c0-0.7,0.5-1.2,1.3-1.2c0.5,0,0.9,0.2,1.3,0.5
			c0.9,0.7,2.3,1.4,4,1.4c1.9,0,3-0.7,3-1.8c0-1.2-1-1.7-3.5-2.3c-4.3-1.2-6-2.6-6-5.2c0-2.6,2.5-4.4,6.3-4.4c1.5,0,3.1,0.4,4.4,1
			c0.9,0.5,1.6,1,1.6,1.7c0,0.6-0.4,1.2-1.2,1.2c-0.5,0-0.9-0.2-1.5-0.5c-1-0.5-2.1-0.9-3.4-0.9c-1.8,0-3,0.5-3,1.7s1.1,1.6,3.6,2.3
			c3.8,1.1,5.8,2.1,5.8,5C66.6,71.4,64.4,73.4,60.2,73.4z"/>
		<path fill="#FFFFFF" d="M76.2,73.4c-2.3,0-4.3-0.7-5.7-1.8c-0.5-0.4-0.7-0.9-0.7-1.4c0-0.7,0.5-1.2,1.3-1.2c0.5,0,0.9,0.2,1.3,0.5
			c0.9,0.7,2.3,1.4,4,1.4c1.9,0,3-0.7,3-1.8c0-1.2-1-1.7-3.5-2.3c-4.3-1.2-6-2.6-6-5.2c0-2.6,2.5-4.4,6.3-4.4c1.5,0,3.1,0.4,4.4,1
			c0.9,0.5,1.6,1,1.6,1.7c0,0.6-0.4,1.2-1.2,1.2c-0.5,0-0.9-0.2-1.5-0.5c-1-0.5-2.1-0.9-3.4-0.9c-1.8,0-3,0.5-3,1.7s1.1,1.6,3.6,2.3
			c3.8,1.1,5.8,2.1,5.8,5C82.7,71.4,80.5,73.4,76.2,73.4z"/>
		<path fill="#FFFFFF" d="M85.9,65.9v-7.1c0-0.9,0.8-1.7,1.7-1.7c0.9,0,1.7,0.8,1.7,1.7v7.5c0,2.3,1.7,4,4.1,4c2.3,0,4.1-1.7,4.1-4
			v-7.5c0-0.9,0.8-1.7,1.7-1.7s1.7,0.8,1.7,1.7v7.1c0,4.2-3.2,7.5-7.5,7.5C89.1,73.4,85.9,70.1,85.9,65.9z"/>
		<path fill="#FFFFFF" d="M104.5,65.9v-7.1c0-0.9,0.8-1.7,1.7-1.7c0.9,0,1.7,0.8,1.7,1.7v7.5c0,2.3,1.7,4,4.1,4c2.3,0,4.1-1.7,4.1-4
			v-7.5c0-0.9,0.8-1.7,1.7-1.7c0.9,0,1.7,0.8,1.7,1.7v7.1c0,4.2-3.2,7.5-7.5,7.5C107.7,73.4,104.5,70.1,104.5,65.9z"/>
		<g>
			<path fill="#FFFFFF" d="M120.8,57.5h1.3v0.2h-0.5v1.4h-0.3v-1.4h-0.5L120.8,57.5L120.8,57.5z"/>
			<path fill="#FFFFFF" d="M122.6,57.5h0.4l0.5,1.3l0,0l0.5-1.3h0.4v1.6H124v-1.3l0,0l-0.5,1.2h-0.2l-0.5-1.2l0,0v1.2h-0.3
				L122.6,57.5L122.6,57.5z"/>
		</g>
	</g>
</g>
</svg>
