<?xml version="1.0" encoding="utf-8"?>
<!-- Generator: Adobe Illustrator 18.1.0, SVG Export Plug-In . SVG Version: 6.00 Build 0)  -->
<svg version="1.1" id="Layer_1" xmlns="http://www.w3.org/2000/svg" xmlns:xlink="http://www.w3.org/1999/xlink" x="0px" y="0px"
	 viewBox="0 0 27.5 27.5" enable-background="new 0 0 27.5 27.5" xml:space="preserve">
<circle fill="#27AAE1" cx="13.8" cy="13.8" r="13.8"/>
<g>
	<path fill="#FFFFFF" d="M17.2,8.1L17.2,8.1L17.2,8.1c0,0.1-0.1,0.2-0.2,0.4v0.1H17c0.4-0.1,0.7-0.2,0.9-0.2h0
		c0.1,0,0.2,0.1,0.2,0.2c0,0.2-0.4,0.3-1.1,0.5c-0.2,0.1-0.4,0.1-0.4,0.2v0h0c1.3,0,2.4,0.6,3.2,1.9c0.4,0.7,0.5,1.1,0.5,1.3
		c0,0.2,0.2,0.4,0.5,0.4l0.3,0c0.4,0,0.9-0.1,1.4-0.2l0,0.1c-0.2,0.4-0.6,0.7-1.3,0.9c-0.3,0.1-0.5,0.1-0.5,0.2v0
		c0.2,0.1,0.5,0.2,1,0.2h0.4c0.3,0,0.5,0,0.5,0.1c-0.6,0.4-1,0.6-1.5,0.6c0,0-0.1,0-0.4,0l-0.2,0c-0.1,0-0.1,0.2-0.3,0.7
		c-0.7,1.8-2.1,3.2-4,4.3c-0.8,0.4-1.7,0.7-2.5,0.9c-0.5,0.1-1.1,0.2-1.7,0.2h-0.8c-0.5,0-1.3-0.1-2.4-0.4c-1.8-0.6-3.2-1.5-4.2-2.8
		l0,0h0c0.9,0.6,1.7,0.8,2.5,0.8h0.8c0.7,0,1.5-0.3,2.4-0.8c0.2-0.1,0.4-0.3,0.6-0.5V17c0,0-0.2-0.1-0.6-0.1
		c-0.4-0.2-0.6-0.4-0.6-0.7v0c0-0.2,0.2-0.4,0.6-0.7v-0.1c-1,0-1.6-0.4-2.1-1.1v-0.1c0.3-0.3,0.6-0.4,1-0.4l0.1-0.1v0
		c-0.6-0.2-1.1-0.5-1.4-0.8c-0.3-0.4-0.5-0.7-0.5-1c0-0.1,0.3-0.1,1-0.2v0L8,11.2c-0.6-0.5-0.9-1.1-0.9-1.6V9.6l0,0
		c0.6,0.2,1.6,0.6,3,1.2c1.1,0.5,1.9,1,2.4,1.4c0.4,0.4,0.6,0.5,0.7,0.5l0.6-1.5c0.4-0.8,0.8-1.5,1.3-2.1c0.4-0.4,0.6-0.6,0.7-0.6h0
		l0.1,0.2l0.8-0.4L17.2,8.1z M17.9,16.9h0.2V17L17.9,16.9L17.9,16.9z"/>
</g>
</svg>
