<?xml version="1.0" encoding="utf-8"?>
<!-- Generator: Adobe Illustrator 18.0.0, SVG Export Plug-In . SVG Version: 6.00 Build 0)  -->
<!DOCTYPE svg PUBLIC "-//W3C//DTD SVG 1.1//EN" "http://www.w3.org/Graphics/SVG/1.1/DTD/svg11.dtd">
<svg version="1.1" id="Layer_1" xmlns="http://www.w3.org/2000/svg" xmlns:xlink="http://www.w3.org/1999/xlink" x="0px" y="0px"
	 viewBox="0 0 31.4 22.3" enable-background="new 0 0 31.4 22.3" xml:space="preserve">
<path fill="#FFFFFF" d="M21.7,0L21.7,0L21.7,0c0,0.2-0.1,0.4-0.4,0.6v0.2h0.2c0.7-0.2,1.2-0.3,1.6-0.3h0c0.2,0,0.3,0.1,0.3,0.3
	c0,0.3-0.6,0.6-1.9,0.9C21,1.8,20.8,1.9,20.8,2V2h0c2.3,0,4.2,1.1,5.7,3.4c0.6,1.2,0.9,2,0.9,2.3c0.1,0.4,0.3,0.6,0.8,0.6l0.5,0
	c0.8,0,1.6-0.1,2.4-0.4l0,0.1c-0.3,0.6-1,1.2-2.2,1.5c-0.6,0.1-0.9,0.2-0.9,0.3V10c0.4,0.2,1,0.3,1.8,0.4h0.6c0.6,0,0.8,0,0.8,0.1
	c-1,0.7-1.8,1.1-2.6,1.1c0,0.1-0.2,0.1-0.6,0.1l-0.4,0c-0.1,0-0.2,0.4-0.4,1.2c-1.3,3.2-3.6,5.7-7.1,7.5c-1.4,0.7-2.9,1.2-4.4,1.5
	c-0.9,0.2-1.9,0.3-3,0.4h-1.4c-0.9,0-2.3-0.2-4.2-0.7c-3.1-1.1-5.6-2.7-7.3-4.8l0,0h0c1.6,1,3.1,1.5,4.3,1.5h1.3
	c1.3,0,2.7-0.5,4.2-1.5c0.4-0.3,0.7-0.5,1-0.9v-0.2c0-0.1-0.3-0.1-1-0.2c-0.7-0.4-1-0.8-1-1.2v0c0-0.4,0.3-0.8,1-1.2v-0.2
	c-1.7,0-2.9-0.6-3.6-1.9v-0.1C6.9,10.3,7.4,10,8.1,10l0.1-0.1V9.8C7.1,9.5,6.3,9,5.7,8.5C5.2,7.7,4.9,7.2,4.9,6.8
	c0-0.1,0.6-0.2,1.8-0.3V6.4L5.6,5.6c-1-0.9-1.5-1.9-1.5-2.8V2.6l0.1-0.1c1.1,0.4,2.9,1,5.3,2.1c2,0.9,3.4,1.7,4.2,2.4
	c0.7,0.6,1.1,1,1.2,1L16,5.3c0.6-1.4,1.4-2.6,2.3-3.7c0.7-0.7,1.1-1.1,1.2-1.1h0l0.3,0.3l1.4-0.7L21.7,0z M23,15.5h0.3v0.1H23V15.5z
	"/>
</svg>
